<?xml version="1.0" standalone="no"?>
<!DOCTYPE svg PUBLIC "-//W3C//DTD SVG 1.1//EN" "http://www.w3.org/Graphics/SVG/1.1/DTD/svg11.dtd" >
<svg xmlns="http://www.w3.org/2000/svg">
  <metadata>Created by iconfont</metadata>
  <defs>
  <font id="iconfont" horiz-adv-x="1024">
    <font-face
      font-family="iconfont"
      font-weight="400"
      font-stretch="normal"
      units-per-em="1024"
      ascent="896"
      descent="-128"
    />
      <missing-glyph />
      
      <glyph glyph-name="gongneng-wenshujiansuo" unicode="&#59597;" d="M0 896m128 0l768 0q128 0 128-128l0-768q0-128-128-128l-768 0q-128 0-128 128l0 768q0 128 128 128ZM384 224H256v224h128v-224z m192 0h-128V544h128v-320z m192 0h-128V640h128v-416z m0-128H256v64h512v-64z"  horiz-adv-x="1024" />
      
      <glyph glyph-name="gongneng-lianwangsousuo" unicode="&#59596;" d="M0 896m128 0l768 0q128 0 128-128l0-768q0-128-128-128l-768 0q-128 0-128 128l0 768q0 128 128 128ZM484.224 627.776a216.064 216.064 0 0 0 216-216 216.064 216.064 0 0 0-216-216 216.064 216.064 0 0 0-216 216 216.064 216.064 0 0 0 216 216z m203.648-385.728l67.904-67.872-33.952-33.92-67.872 67.84 33.92 33.952z"  horiz-adv-x="1024" />
      
      <glyph glyph-name="gongneng-mingancilanjie" unicode="&#59595;" d="M0 896m128 0l768 0q128 0 128-128l0-768q0-128-128-128l-768 0q-128 0-128 128l0 768q0 128 128 128ZM728 432h-240v-177.184c0-37.504 18.656-72.544 49.792-93.408l25.984-17.408H319.84a23.84 23.84 0 0 0-23.84 23.808V600.192c0 12.896 10.72 23.808 23.968 23.808h287.968l120.064-120v-72z m-192-48h192v-129.184c0-21.504-10.688-41.6-28.48-53.536l-67.52-45.216-67.52 45.216c-17.792 11.936-28.48 32.032-28.48 53.536V384z"  horiz-adv-x="1024" />
      
      <glyph glyph-name="gongneng-changjing" unicode="&#59523;" d="M0 896m128 0l768 0q128 0 128-128l0-768q0-128-128-128l-768 0q-128 0-128 128l0 768q0 128 128 128ZM296 432h432v-240.096a23.872 23.872 0 0 0-23.84-23.904H319.84a23.84 23.84 0 0 0-23.84 23.904V432z m144-48v-48h144V384h-144zM272 576c0 13.248 10.912 24 23.808 24h432.384c13.152 0 23.808-10.656 23.808-24v-96h-480v96z"  horiz-adv-x="1024" />
      
      <glyph glyph-name="wendangleixing-HTML" unicode="&#59591;" d="M658.285714 749.714286v-146.285715a36.571429 36.571429 0 0 1 36.571429-36.571428l146.249143 0.036571 0.036571-512.365714a36.315429 36.315429 0 0 0-36.315428-36.242286H219.172571A36.571429 36.571429 0 0 0 182.857143 54.564571V713.435429C182.857143 733.476571 199.131429 749.714286 219.172571 749.714286H658.285714zM658.285714 749.714286l182.857143-182.857143h-146.285714a36.571429 36.571429 0 0 0-36.571429 36.571428V749.714286zM295.131429 385.828571V493.714286H256v-256h39.131429v112.64H332.8V237.714286h39.131429v256H332.8v-107.885715H295.131429zM461.531429 237.714286v220.525714h35.108571V493.714286h-109.348571v-35.474286h35.108571V237.714286h39.131429z m108.982857 256H512v-256h33.645714v192.731428l28.16-192.731428h38.034286l28.16 192V237.714286h38.4v256h-58.148571l-24.868572-180.297143L570.514286 493.714286z m131.291428 0v-256h82.285715v35.474285h-43.154286V493.714286h-39.131429z"  horiz-adv-x="1024" />
      
      <glyph glyph-name="wendangleixing-csv" unicode="&#59592;" d="M658.285714 749.714286v-146.285715a36.571429 36.571429 0 0 1 36.571429-36.571428l146.249143 0.036571 0.036571-512.365714a36.315429 36.315429 0 0 0-36.315428-36.242286H219.172571A36.571429 36.571429 0 0 0 182.857143 54.564571V713.435429C182.857143 733.476571 199.131429 749.714286 219.172571 749.714286H658.285714zM658.285714 749.714286l182.857143-182.857143h-146.285714a36.571429 36.571429 0 0 0-36.571429 36.571428V749.714286zM399.725714 399.798857h34.157715v97.133714c0 36.461714-18.249143 54.710857-54.710858 54.710858h-8.667428c-36.937143 0-55.625143-18.688-55.625143-55.625143v-254.464c0-36.937143 18.688-55.625143 55.625143-55.625143h8.228571c36.937143 0 55.588571 18.688 55.588572 55.625143v104.448h-34.157715v-105.801143c0-14.628571-7.314286-21.906286-21.906285-21.906286h-6.838857c-14.592 0-21.869714 7.314286-21.869715 21.906286V497.371429c0 14.628571 7.277714 21.906286 21.869715 21.906285h6.4c14.592 0 21.869714-7.314286 21.869714-21.906285v-97.572572z m136.082286 5.485714h34.230857v91.648c0 36.022857-18.285714 54.710857-54.747428 54.710858h-5.924572c-36.937143 0-55.588571-18.688-55.588571-55.625143v-79.798857c0-24.649143 9.069714-36.022857 28.708571-48.786286l41.033143-25.563429c9.142857-5.924571 12.763429-12.763429 12.763429-23.259428v-80.237715c0-14.153143-6.838857-20.992-20.992-20.992h-6.838858c-14.116571 0-20.955429 6.838857-20.955428 20.992v95.744h-34.194286v-93.476571c0-36.022857 18.212571-54.710857 54.710857-54.710857h6.838857c36.937143 0 55.625143 18.688 55.625143 55.625143v81.627428c0 24.612571-8.667429 36.022857-28.708571 48.786286l-41.069714 25.563429c-9.545143 5.924571-12.763429 12.288-12.763429 23.222857V499.2c0 14.153143 6.838857 20.992 20.992 20.992h5.924571c14.116571 0 20.955429-6.838857 20.955429-20.992v-93.915429z m128.621714-219.355428l44.690286 365.714286h-34.194286l-29.184-285.805715-29.184 285.805715h-35.108571l44.690286-365.714286h38.290285z"  horiz-adv-x="1024" />
      
      <glyph glyph-name="wendangleixing-APIjiekou" unicode="&#59593;" d="M804.571429 457.142857H219.428571v-329.142857h585.142858v329.142857zM182.857143 713.142857h658.285714a36.571429 36.571429 0 0 0 36.571429-36.571428v-585.142858a36.571429 36.571429 0 0 0-36.571429-36.571428H182.857143a36.571429 36.571429 0 0 0-36.571429 36.571428V676.571429a36.571429 36.571429 0 0 0 36.571429 36.571428z m73.142857-109.714286v-73.142857h73.142857V603.428571H256z m146.285714 0v-73.142857h73.142857V603.428571h-73.142857zM256 420.571429h109.714286v-182.857143H256z"  horiz-adv-x="1024" />
      
      <glyph glyph-name="wendangleixing-kubiao" unicode="&#59594;" d="M292.571429 530.285714v-475.428571H182.857143a36.571429 36.571429 0 0 0-36.571429 36.571428V530.285714h146.285715z m585.142857 0v-438.857143a36.571429 36.571429 0 0 0-36.571429-36.571428H329.142857V530.285714h548.571429zM841.142857 713.142857a36.571429 36.571429 0 0 0 36.571429-36.571428v-109.714286H146.285714V676.571429a36.571429 36.571429 0 0 0 36.571429 36.571428h658.285714z"  horiz-adv-x="1024" />
      
      <glyph glyph-name="shujuku" unicode="&#59590;" d="M213.333333 384c0-13.354667 19.669333-36.608 65.28-59.434667C337.664 295.04 421.418667 277.333333 512 277.333333c90.581333 0 174.336 17.706667 233.386667 47.232C790.954667 347.392 810.666667 370.645333 810.666667 384V476.629333c-70.4-43.52-178.048-71.296-298.666667-71.296s-228.266667 27.818667-298.666667 71.296V384z m597.333334-120.704c-70.4-43.52-178.048-71.296-298.666667-71.296s-228.266667 27.818667-298.666667 71.296V170.666667c0-13.354667 19.669333-36.608 65.28-59.434667C337.664 81.706667 421.418667 64 512 64c90.581333 0 174.336 17.706667 233.386667 47.232C790.954667 134.058667 810.666667 157.312 810.666667 170.666667v92.629333zM128 170.666667V597.333333c0 106.026667 171.946667 192 384 192s384-85.973333 384-192v-426.666666c0-106.026667-171.946667-192-384-192S128 64.64 128 170.666667z m384 320c90.581333 0 174.336 17.706667 233.386667 47.232C790.954667 560.725333 810.666667 583.978667 810.666667 597.333333c0 13.354667-19.669333 36.608-65.28 59.434667C686.293333 686.293333 602.581333 704 512 704c-90.581333 0-174.336-17.706667-233.386667-47.232C233.002667 633.941333 213.333333 610.688 213.333333 597.333333c0-13.354667 19.669333-36.608 65.28-59.434666C337.664 508.373333 421.418667 490.666667 512 490.666667z"  horiz-adv-x="1024" />
      
      <glyph glyph-name="shujukuxuanzhong" unicode="&#59589;" d="M896 512v-128c0-106.026667-171.946667-192-384-192S128 277.973333 128 384V512c0-106.026667 171.946667-192 384-192s384 85.973333 384 192zM128 298.666667c0-106.026667 171.946667-192 384-192s384 85.973333 384 192v-128c0-106.026667-171.946667-192-384-192S128 64.64 128 170.666667v128z m384 106.666666c-212.053333 0-384 85.973333-384 192s171.946667 192 384 192 384-85.973333 384-192-171.946667-192-384-192z"  horiz-adv-x="1024" />
      
      <glyph glyph-name="shujuku2zhichuan" unicode="&#59587;" d="M0 896m128 0l768 0q128 0 128-128l0-768q0-128-128-128l-768 0q-128 0-128 128l0 768q0 128 128 128ZM800 704a32 32 0 0 0 32-32v-512a32 32 0 0 0-32-32H480a32 32 0 0 0-32 32V672a32 32 0 0 0 32 32h320z m-160-160h-128v-64h128v64z m0 96h-128v-64h128V640zM480 576v-448H216.704A24.704 24.704 0 0 0 192 152.704V551.296c0 13.632 11.072 24.704 24.704 24.704H480z m-96-64H256v-64h128v64zM411.552 64.32c-56.672 4.128-101.344 49.568-101.344 104.992 0 37.76 20.704 70.816 51.776 89.408 8.448 63.808 65.216 113.12 134.016 113.12s125.568-49.312 134.016-113.12c31.072-18.56 51.776-51.68 51.776-89.408 0-55.424-44.672-100.864-101.344-104.992V64H411.52v0.32zM549.472 158.912v108.032H442.56v-108.032H383.36l112.608-110.72 112.608 110.72z"  horiz-adv-x="1024" />
      
      <glyph glyph-name="shujuku1excelshangchuan" unicode="&#59588;" d="M0 896m128 0l768 0q128 0 128-128l0-768q0-128-128-128l-768 0q-128 0-128 128l0 768q0 128 128 128ZM640.704 704L768 576.64V96a32 32 0 0 0-32-32H288a32 32 0 0 0-32 32V672a32 32 0 0 0 32 32h352.704zM640 704l128-128h-96a32 32 0 0 0-32 32V704zM512.544 512l128.512-128.544-79.072 0.032v-126.336h-102.304v126.336H384L512.544 512z"  horiz-adv-x="1024" />
      
      <glyph glyph-name="workflow-zhishixieru" unicode="&#59585;" d="M0 896m170.666667 0l682.666666 0q170.666667 0 170.666667-170.666667l0-682.666666q0-170.666667-170.666667-170.666667l-682.666666 0q-170.666667 0-170.666667 170.666667l0 682.666666q0 170.666667 170.666667 170.666667ZM682.666667 682.666667a128 128 0 0 0 0-256H256v42.666666h426.666667a85.333333 85.333333 0 0 1 85.12 78.933334L768 554.666667a85.333333 85.333333 0 0 1-85.333333 85.333333H256V682.666667h426.666667zM682.666667 640a85.333333 85.333333 0 1 0 0-170.666667H298.666667V640h384zM512 341.333333H341.333333a128 128 0 0 1 0-256h170.666667v42.666667H341.333333a85.333333 85.333333 0 1 0 0 170.666667h170.666667v42.666666zM512 298.666667H341.333333a85.333333 85.333333 0 1 1 0-170.666667h170.666667v170.666667zM554.666667 384h256v-256h-256zM725.333333 341.333333v-85.333333h85.333334v-85.333333h-85.333334v-85.333334h-85.333333v85.333334h-85.333333v85.333333h85.333333v85.333333h85.333333z"  horiz-adv-x="1024" />
      
      <glyph glyph-name="workflow-shujuku" unicode="&#59586;" d="M0 896m170.666667 0l682.666666 0q170.666667 0 170.666667-170.666667l0-682.666666q0-170.666667-170.666667-170.666667l-682.666666 0q-170.666667 0-170.666667 170.666667l0 682.666666q0 170.666667 170.666667 170.666667ZM768 469.333333v-85.333333c0-70.698667-114.602667-128-256-128s-256 57.301333-256 128v85.333333c0-70.698667 114.602667-128 256-128s256 57.301333 256 128zM256 327.125333c0-70.698667 114.602667-128 256-128s256 57.301333 256 128v-85.333333c0-70.698667-114.602667-128-256-128s-256 57.301333-256 128v85.333333z m256 71.082667c-141.397333 0-256 57.301333-256 128s114.602667 128 256 128 256-57.301333 256-128-114.602667-128-256-128z"  horiz-adv-x="1024" />
      
      <glyph glyph-name="workflow-zidingyi" unicode="&#59584;" d="M0 896m170.666667 0l682.666666 0q170.666667 0 170.666667-170.666667l0-682.666666q0-170.666667-170.666667-170.666667l-682.666666 0q-170.666667 0-170.666667 170.666667l0 682.666666q0 170.666667 170.666667 170.666667ZM362.666667 654.208A120.874667 120.874667 0 0 0 483.541333 533.333333v-120.874666H362.666667a120.874667 120.874667 0 0 0 0 241.749333zM362.666667 355.541333h120.874666V234.666667A120.874667 120.874667 0 1 0 362.666667 355.541333zM661.333333 654.208a120.874667 120.874667 0 0 0 0-241.749333h-120.874666V533.333333A120.874667 120.874667 0 0 0 661.333333 654.208zM540.458667 355.541333H661.333333a120.874667 120.874667 0 1 0-120.874666-120.874666v120.874666z"  horiz-adv-x="1024" />
      
      <glyph glyph-name="workfolw-tuxiangshengcheng" unicode="&#59582;" d="M0 896m170.666667 0l682.666666 0q170.666667 0 170.666667-170.666667l0-682.666666q0-170.666667-170.666667-170.666667l-682.666666 0q-170.666667 0-170.666667 170.666667l0 682.666666q0 170.666667 170.666667 170.666667ZM764.117333 489.130667l-6.698666-15.36a13.738667 13.738667 0 0 0-25.386667 0l-6.656 15.36a118.442667 118.442667 0 0 1-60.245333 61.098666l-20.650667 9.173334a14.421333 14.421333 0 0 0 0 26.154666l19.456 8.661334a118.528 118.528 0 0 1 61.141333 63.146666l6.869334 16.64a13.738667 13.738667 0 0 0 25.557333 0l6.869333-16.64a118.528 118.528 0 0 1 61.141334-63.146666l19.456-8.661334a14.421333 14.421333 0 0 0 0-26.154666l-20.608-9.173334c-26.837333-11.946667-48.341333-33.706667-60.245334-61.098666zM282.88 628.352h298.88v-54.272H310.314667v-380.16l252.288 252.373333a27.136 27.136 0 0 0 38.4 0l143.744-144.042666v108.885333h54.272v-244.522667c0-14.933333-12.373333-26.965333-26.88-26.965333H282.88A26.965333 26.965333 0 0 0 256 166.613333V601.386667c0 14.933333 12.373333 26.965333 26.922667 26.965333z m135.978667-217.173333a54.314667 54.314667 0 1 0 0 108.586666 54.314667 54.314667 0 0 0 0-108.629333z"  horiz-adv-x="1024" />
      
      <glyph glyph-name="workfolw-shipinshengcheng" unicode="&#59583;" d="M0 896m170.666667 0l682.666666 0q170.666667 0 170.666667-170.666667l0-682.666666q0-170.666667-170.666667-170.666667l-682.666666 0q-170.666667 0-170.666667 170.666667l0 682.666666q0 170.666667 170.666667 170.666667ZM714.752 473.770667l6.698667 15.36a118.442667 118.442667 0 0 0 60.245333 61.098666l20.608 9.173334a14.421333 14.421333 0 0 1 0 26.154666l-19.456 8.661334a118.528 118.528 0 0 0-61.141333 63.146666l-6.869334 16.64a13.738667 13.738667 0 0 1-25.557333 0l-6.869333-16.64a118.528 118.528 0 0 0-61.141334-63.146666l-19.456-8.661334a14.421333 14.421333 0 0 1 0-26.154666l20.650667-9.173334c26.794667-11.946667 48.298667-33.706667 60.245333-61.098666l6.656-15.36c4.906667-11.264 20.48-11.264 25.386667 0z m-12.672-62.634667c18.176 0 35.626667 2.986667 51.968 8.490667a271.104 271.104 0 0 0-106.24-252.842667h54.272v-54.314667h-217.216a271.530667 271.530667 0 1 0 71.04 533.632 162.901333 162.901333 0 0 1 146.133333-234.965333z m-217.216 27.178667a54.314667 54.314667 0 1 1 0 108.586666 54.314667 54.314667 0 0 1 0-108.586666z m-108.629333-108.629334a54.314667 54.314667 0 1 1 0 108.629334 54.314667 54.314667 0 0 1 0-108.629334z m217.216 0a54.314667 54.314667 0 1 1 0 108.629334 54.314667 54.314667 0 0 1 0-108.629334z m-108.586667-108.586666a54.314667 54.314667 0 1 1 0 108.586666 54.314667 54.314667 0 0 1 0-108.586666z"  horiz-adv-x="1024" />
      
      <glyph glyph-name="gongneng-mohuwentiyindao" unicode="&#59579;" d="M0 896m128 0l768 0q128 0 128-128l0-768q0-128-128-128l-768 0q-128 0-128 128l0 768q0 128 128 128ZM352.32 190.72L224 78.4V576a64 64 0 0 0 64 64h480a64 64 0 0 0 64-64v-321.28a64 64 0 0 0-64-64H352.32zM352 384v-64h224v64h-224z m0 128v-64h352v64H352z"  horiz-adv-x="1024" />
      
      <glyph glyph-name="gongneng-wentilianxiang" unicode="&#59580;" d="M0 896m128 0l768 0q128 0 128-128l0-768q0-128-128-128l-768 0q-128 0-128 128l0 768q0 128 128 128ZM306.304 595.776H224.512L166.912 192h57.024l7.488 63.36H295.36L303.424 192h61.056L306.304 595.776zM263.68 511.68l24.768-201.6H238.336l25.344 201.6zM529.792 399.36c22.464 8.064 34.56 25.92 34.56 61.632V520.32c0 50.112-24.768 74.88-74.88 74.88h-99.648V192h100.8c50.112 0 74.88 24.768 74.88 74.88v74.304c0 32.832-11.52 50.112-35.712 58.176z m-26.496 118.656v-69.12c0-17.28-8.064-25.344-25.344-25.344h-27.072v117.504h29.376c15.552 0 23.04-7.488 23.04-23.04z m-52.416-146.88h28.224c17.28 0 25.344-8.064 25.344-25.344v-76.608c0-15.552-7.488-23.04-23.04-23.04h-30.528v124.992zM791.808 357.312v-91.008c0-16.128-7.488-23.616-23.04-23.616h-11.52c-16.128 0-23.616 7.488-23.616 23.616v254.592c0 16.128 7.488 23.616 23.616 23.616h10.368c15.552 0 23.04-7.488 23.04-23.616v-78.912h60.48v82.368c0 50.112-24.192 74.304-74.304 74.304h-29.952c-50.112 0-74.88-24.768-74.88-74.88v-260.352c0-50.112 24.768-74.88 74.88-74.88h30.528c50.112 0 74.88 24.768 74.88 74.88v93.888h-60.48zM608 640h32v-512h-32z"  horiz-adv-x="1024" />
      
      <glyph glyph-name="gongneng-kuaijiezhiling" unicode="&#59581;" d="M0 896m128 0l768 0q128 0 128-128l0-768q0-128-128-128l-768 0q-128 0-128 128l0 768q0 128 128 128ZM561.888 448h173.632a16 16 0 0 0 12.672-25.76l-265.28-344.864a16 16 0 0 0-28.576 11.52l23.68 213.344a16 16 0 0 1-14.112 17.664l-0.896 0.064L288.48 320a16 16 0 0 0-12.672 25.76l265.28 344.864a16 16 0 0 0 28.576-11.52l-23.68-213.344a16 16 0 0 1 14.112-17.664l1.792-0.096z"  horiz-adv-x="1024" />
      
      <glyph glyph-name="yiyouagent" unicode="&#59578;" d="M0 896m170.666667 0l682.666666 0q170.666667 0 170.666667-170.666667l0-682.666666q0-170.666667-170.666667-170.666667l-682.666666 0q-170.666667 0-170.666667 170.666667l0 682.666666q0 170.666667 170.666667 170.666667ZM361.301333 101.632L192 64l37.632 169.301333a320 320 0 1 0 131.712-131.712zM352 384a160 160 0 0 1 320 0h-64a96 96 0 1 0-192 0h-64z"  horiz-adv-x="1024" />
      
      <glyph glyph-name="agent" unicode="&#59576;" d="M0 896m170.666667 0l682.666666 0q170.666667 0 170.666667-170.666667l0-682.666666q0-170.666667-170.666667-170.666667l-682.666666 0q-170.666667 0-170.666667 170.666667l0 682.666666q0 170.666667 170.666667 170.666667ZM554.666667 640a42.538667 42.538667 0 0 0-14.208-31.786667V554.666667H682.666667a85.333333 85.333333 0 0 0 85.333333-85.333334v-284.458666a85.333333 85.333333 0 0 0-85.333333-85.333334H341.333333a85.333333 85.333333 0 0 0-85.333333 85.333334V469.333333a85.333333 85.333333 0 0 0 85.333333 85.333334h142.208V608.213333A42.666667 42.666667 0 1 0 554.666667 640z m-384-227.541333h56.874666v-170.666667H170.666667v170.666667z m682.666666 0h-56.874666v-170.666667H853.333333v170.666667z m-426.666666-128a42.666667 42.666667 0 1 1 0 85.333333 42.666667 42.666667 0 0 1 0-85.333333z m213.333333 42.666666a42.666667 42.666667 0 1 1-85.333333 0 42.666667 42.666667 0 0 1 85.333333 0z"  horiz-adv-x="1024" />
      
      <glyph glyph-name="quanjutiaozhuantiaojian" unicode="&#59577;" d="M0 896m170.666667 0l682.666666 0q170.666667 0 170.666667-170.666667l0-682.666666q0-170.666667-170.666667-170.666667l-682.666666 0q-170.666667 0-170.666667 170.666667l0 682.666666q0 170.666667 170.666667 170.666667ZM341.333333 597.333333h85.333334V682.666667H341.333333v-85.333334z m0-512h85.333334V512H341.333333v-426.666667z m213.333334 426.666667h-42.666667v-85.461333h42.666667V85.333333h85.674666v341.205334H725.333333V512h-84.992V565.162667c0 19.413333 9.813333 28.586667 30.464 28.586666H725.333333V682.666667h-60.970666C584.96 682.666667 554.666667 645.888 554.666667 571.306667V512z"  horiz-adv-x="1024" />
      
      <glyph glyph-name="morentouxiang-shujubiao" unicode="&#59575;" d="M0 896m64 0l896 0q64 0 64-64l0-896q0-64-64-64l-896 0q-64 0-64 64l0 896q0 64 64 64ZM384 448v-352H256a32 32 0 0 0-32 32V448h160zM800 448v-320a32 32 0 0 0-32-32H448V448h352zM768 672a32 32 0 0 0 32-32v-128H224V640a32 32 0 0 0 32 32h512z"  horiz-adv-x="1024" />
      
      <glyph glyph-name="HTML" unicode="&#59574;" d="M658.285714 749.714286v-146.285715a36.571429 36.571429 0 0 1 36.571429-36.571428l146.249143 0.036571 0.036571-512.365714a36.315429 36.315429 0 0 0-36.315428-36.242286H219.172571A36.571429 36.571429 0 0 0 182.857143 54.564571V713.435429C182.857143 733.476571 199.131429 749.714286 219.172571 749.714286H658.285714zM658.285714 749.714286l182.857143-182.857143h-146.285714a36.571429 36.571429 0 0 0-36.571429 36.571428V749.714286zM295.131429 385.828571V493.714286H256v-256h39.131429v112.64H332.8V237.714286h39.131429v256H332.8v-107.885715H295.131429zM461.531429 237.714286v220.525714h35.108571V493.714286h-109.348571v-35.474286h35.108571V237.714286h39.131429z m108.982857 256H512v-256h33.645714v192.731428l28.16-192.731428h38.034286l28.16 192V237.714286h38.4v256h-58.148571l-24.868572-180.297143L570.514286 493.714286z m131.291428 0v-256h82.285715v35.474285h-43.154286V493.714286h-39.131429z"  horiz-adv-x="1024" />
      
      <glyph glyph-name="MCP" unicode="&#59573;" d="M0 896m170.666667 0l682.666666 0q170.666667 0 170.666667-170.666667l0-682.666666q0-170.666667-170.666667-170.666667l-682.666666 0q-170.666667 0-170.666667 170.666667l0 682.666666q0 170.666667 170.666667 170.666667ZM741.930667 283.733333l34.176-20.48a14.208 14.208 0 0 0 0-24.405333l-249.472-149.717333a28.416 28.416 0 0 0-29.269334 0L247.893333 238.848a14.208 14.208 0 0 0 0 24.362667l34.176 20.522666L512 145.792l229.930667 137.941333z m0 133.674667l34.176-20.48a14.208 14.208 0 0 0 0-24.405333L512 214.058667 247.893333 372.48a14.208 14.208 0 0 0 0 24.405333l34.176 20.48L512 279.466667l229.930667 137.941333z m-215.296 261.461333l249.472-149.674666a14.208 14.208 0 0 0 0-24.405334L512 346.325333 247.893333 504.746667a14.208 14.208 0 0 0 0 24.405333l249.472 149.674667a28.458667 28.458667 0 0 0 29.269334 0z"  horiz-adv-x="1024" />
      
      <glyph glyph-name="zhinengtipingce" unicode="&#59571;" d="M883.754667 549.205333l-10.496-24.149333a21.589333 21.589333 0 0 0-39.850667 0l-10.496 24.149333a186.154667 186.154667 0 0 1-94.72 96l-32.384 14.464a22.613333 22.613333 0 0 0 0 41.088l30.592 13.610667a186.282667 186.282667 0 0 1 96.042667 99.242667l10.794666 26.069333a21.589333 21.589333 0 0 0 40.192 0l10.794667-26.026667a186.282667 186.282667 0 0 1 96-99.285333l30.634667-13.653333a22.613333 22.613333 0 0 0 0-41.045334l-32.426667-14.421333a186.154667 186.154667 0 0 1-94.677333-96.042667zM512 810.666667C276.352 810.666667 85.333333 619.648 85.333333 384c0-72.661333 18.133333-141.056 50.176-200.917333L85.333333-42.666667l225.749334 50.176A424.789333 424.789333 0 0 1 512-42.666667c235.648 0 426.666667 191.018667 426.666667 426.666667 0 17.152-1.024 34.133333-2.986667 50.773333l-84.736-10.026666A341.333333 341.333333 0 0 0 512 42.666667a339.413333 339.413333 0 0 0-160.682667 40.106666l-27.861333 14.890667-125.738667-27.946667 27.946667 125.738667-14.933333 27.861333A339.413333 339.413333 0 0 0 170.666667 384a341.333333 341.333333 0 0 0 426.666666 330.581333l21.248 82.645334C584.448 806.016 548.736 810.666667 512 810.666667zM384 384H298.666667a213.333333 213.333333 0 0 1 426.666666 0h-85.333333a128 128 0 1 0-256 0z"  horiz-adv-x="1024" />
      
      <glyph glyph-name="zhinengtipingcexuanzhong" unicode="&#59572;" d="M883.754667 549.205333l-10.496-24.149333a21.589333 21.589333 0 0 0-39.850667 0l-10.496 24.149333a186.154667 186.154667 0 0 1-94.72 96l-32.384 14.464a22.613333 22.613333 0 0 0 0 41.088l30.592 13.610667a186.282667 186.282667 0 0 1 96.042667 99.242667l10.794666 26.069333a21.589333 21.589333 0 0 0 40.192 0l10.794667-26.026667a186.282667 186.282667 0 0 1 96-99.285333l30.634667-13.653333a22.613333 22.613333 0 0 0 0-41.045334l-32.426667-14.421333a186.154667 186.154667 0 0 1-94.677333-96.042667zM853.333333 426.666667c28.586667 0 56.021333 4.693333 81.706667 13.312 2.389333-18.346667 3.626667-36.992 3.626667-55.978667 0-235.648-191.018667-426.666667-426.666667-426.666667a424.789333 424.789333 0 0 0-200.917333 50.176L85.333333-42.666667l50.176 225.749334A424.789333 424.789333 0 0 0 85.333333 384C85.333333 619.648 276.352 810.666667 512 810.666667c38.656 0 76.074667-5.12 111.658667-14.762667A256 256 0 0 1 853.333333 426.666667zM298.666667 384a213.333333 213.333333 0 0 1 426.666666 0h-85.333333a128 128 0 1 0-256 0H298.666667z"  horiz-adv-x="1024" />
      
      <glyph glyph-name="csv" unicode="&#59570;" d="M658.285714 749.714286v-146.285715a36.571429 36.571429 0 0 1 36.571429-36.571428l146.249143 0.036571 0.036571-512.365714a36.315429 36.315429 0 0 0-36.315428-36.242286H219.172571A36.571429 36.571429 0 0 0 182.857143 54.564571V713.435429C182.857143 733.476571 199.131429 749.714286 219.172571 749.714286H658.285714z m-279.113143-198.070857h-8.667428c-36.937143 0-55.625143-18.688-55.625143-55.625143v-254.464c0-36.937143 18.688-55.625143 55.625143-55.625143h8.228571c36.937143 0 55.588571 18.688 55.588572 55.625143v104.448h-34.157715v-105.801143c0-14.628571-7.314286-21.906286-21.906285-21.906286h-6.838857c-14.592 0-21.869714 7.314286-21.869715 21.906286V497.371429c0 14.628571 7.277714 21.906286 21.869715 21.906285h6.4c14.592 0 21.869714-7.314286 21.869714-21.906285v-97.572572h34.194286v97.133714c0 36.461714-18.249143 54.710857-54.710858 54.710858z m136.118858 0h-5.924572c-36.937143 0-55.588571-18.688-55.588571-55.625143v-79.798857c0-24.649143 9.069714-36.022857 28.708571-48.786286l41.033143-25.563429c9.142857-5.924571 12.763429-12.763429 12.763429-23.259428v-80.237715c0-14.153143-6.838857-20.992-20.992-20.992h-6.838858c-14.116571 0-20.955429 6.838857-20.955428 20.992v95.744h-34.194286v-93.476571c0-36.022857 18.212571-54.710857 54.710857-54.710857h6.838857c36.937143 0 55.625143 18.688 55.625143 55.625143v81.627428c0 24.612571-8.667429 36.022857-28.708571 48.786286l-41.069714 25.563429c-9.545143 5.924571-12.763429 12.288-12.763429 23.222857V499.2c0 14.153143 6.838857 20.992 20.992 20.992h5.924571c14.116571 0 20.955429-6.838857 20.955429-20.992v-93.915429h34.230857v91.648c0 36.022857-18.285714 54.710857-54.747428 54.710858z m101.266285 0h-35.108571l44.690286-365.714286h38.290285l44.690286 365.714286h-34.194286l-29.184-285.805715-29.184 285.805715zM658.285714 749.714286l182.857143-182.857143h-146.285714a36.571429 36.571429 0 0 0-36.571429 36.571428V749.714286z"  horiz-adv-x="1024" />
      
      <glyph glyph-name="MCPfuwu1" unicode="&#59569;" d="M0 896m85.333333 0l853.333334 0q85.333333 0 85.333333-85.333333l0-853.333334q0-85.333333-85.333333-85.333333l-853.333334 0q-85.333333 0-85.333333 85.333333l0 853.333334q0 85.333333 85.333333 85.333333ZM213.333333 732.458667v-398.250667A298.666667 298.666667 0 1 1 665.472 590.506667l-219.861333 126.890666V625.493333L213.333333 732.458667z m298.666667-232.32a165.930667 165.930667 0 1 0 0-331.861334 165.930667 165.930667 0 0 0 0 331.861334z"  horiz-adv-x="1024" />
      
      <glyph glyph-name="MCPfuwuxuanzhong" unicode="&#59567;" d="M856.874667 434.133333l51.285333-30.762666a21.333333 21.333333 0 0 0 0-36.608L512 129.109333l-396.16 237.653334a21.333333 21.333333 0 0 0 0 36.608l51.285333 30.762666L512 227.2l344.874667 206.933333z m0-200.533333l51.285333-30.762667a21.333333 21.333333 0 0 0 0-36.608l-374.186667-224.512a42.666667 42.666667 0 0 0-43.946666 0l-374.186667 224.512a21.333333 21.333333 0 0 0 0 36.608l51.285333 30.762667L512 26.666667l344.874667 206.933333zM533.930667 826.282667l374.229333-224.512a21.333333 21.333333 0 0 0 0-36.608L512 327.509333l-396.16 237.653334a21.333333 21.333333 0 0 0 0 36.608l374.186667 224.512a42.666667 42.666667 0 0 0 43.946666 0z"  horiz-adv-x="1024" />
      
      <glyph glyph-name="MCPfuwu" unicode="&#59568;" d="M856.874667 233.6l51.285333-30.762667a21.333333 21.333333 0 0 0 0-36.608l-374.186667-224.512a42.666667 42.666667 0 0 0-43.946666 0l-374.186667 224.512a21.333333 21.333333 0 0 0 0 36.608l51.285333 30.762667L512 26.666667l344.874667 206.933333z m0 200.533333l51.285333-30.762666a21.333333 21.333333 0 0 0 0-36.608L512 129.109333l-396.16 237.653334a21.333333 21.333333 0 0 0 0 36.608l51.285333 30.762666L512 227.2l344.874667 206.933333z m-322.944 392.149334l374.229333-224.512a21.333333 21.333333 0 0 0 0-36.608L512 327.509333l-396.16 237.653334a21.333333 21.333333 0 0 0 0 36.608l374.186667 224.512a42.666667 42.666667 0 0 0 43.946666 0zM512 739.968L251.178667 583.466667 512 426.965333l260.821333 156.501334L512 739.968z"  horiz-adv-x="1024" />
      
      <glyph glyph-name="wentilijie" unicode="&#59565;" d="M0 896m85.333333 0l853.333334 0q85.333333 0 85.333333-85.333333l0-853.333334q0-85.333333-85.333333-85.333333l-853.333334 0q-85.333333 0-85.333333 85.333333l0 853.333334q0 85.333333 85.333333 85.333333ZM759.466667 474.624l-7.210667-16.469333a14.762667 14.762667 0 0 0-27.264 0l-7.168 16.469333c-12.8 29.44-35.925333 52.906667-64.768 65.706667l-22.186667 9.856a15.488 15.488 0 0 0 0 28.117333l20.949334 9.301333a127.402667 127.402667 0 0 1 65.706666 67.882667l7.381334 17.834667a14.762667 14.762667 0 0 0 27.477333 0l7.381333-17.834667a127.402667 127.402667 0 0 1 65.706667-67.84l20.906667-9.344a15.488 15.488 0 0 0 0-28.117333l-22.186667-9.813334c-28.8-12.842667-51.925333-36.266667-64.725333-65.706666z m37.546666-112.981333a294.4 294.4 0 0 1-2.517333 38.314666 174.933333 174.933333 0 0 0-55.893333-9.130666c-31.872 0-61.781333 8.533333-87.509334 23.466666v-140.202666h-58.368v175.104h15.36a174.464 174.464 0 0 0-44.544 116.736c0 27.818667 6.485333 54.101333 18.005334 77.44a291.84 291.84 0 0 1-282.752-488.106667L213.333333 69.845333h291.84a291.84 291.84 0 0 1 291.84 291.84zM475.989333 536.746667h58.368v-350.208h-58.368V536.746667zM359.253333 274.090667v175.104h58.368v-175.104H359.253333z"  horiz-adv-x="1024" />
      
      <glyph glyph-name="chaoshilanjie" unicode="&#59566;" d="M0 896m85.333333 0l853.333334 0q85.333333 0 85.333333-85.333333l0-853.333334q0-85.333333-85.333333-85.333333l-853.333334 0q-85.333333 0-85.333333 85.333333l0 853.333334q0 85.333333 85.333333 85.333333ZM671.786667 541.354667l41.386666 41.344 40.192-40.234667-41.386666-41.344a256 256 0 1 0-40.234667 40.234667z m-188.245334-57.813334v-170.666666h56.917334v170.666666h-56.917334zM398.208 682.666667h227.584v-56.874667H398.208V682.666667z"  horiz-adv-x="1024" />
      
      <glyph glyph-name="a-miyueguanli2" unicode="&#59509;" d="M256 426.666667v-426.666667h554.666667V426.666667H256z m512 85.333333h85.333333a42.666667 42.666667 0 0 0 42.666667-42.666667v-512a42.666667 42.666667 0 0 0-42.666667-42.666666H170.666667a42.666667 42.666667 0 0 0-42.666667 42.666666V469.333333a42.666667 42.666667 0 0 0 42.666667 42.666667h85.333333V554.666667a256 256 0 1 0 512 0v-42.666667z m-85.333333 0V554.666667a170.666667 170.666667 0 0 1-341.333334 0v-42.666667h341.333334z m-384-128h85.333333v-85.333333H298.666667v85.333333z m0-128h85.333333v-85.333333H298.666667v85.333333z m0-128h85.333333v-85.333333H298.666667v85.333333z"  horiz-adv-x="1024" />
      
      <glyph glyph-name="miyueguanli" unicode="&#59564;" d="M768 512h85.333333a42.666667 42.666667 0 0 0 42.666667-42.666667v-512a42.666667 42.666667 0 0 0-42.666667-42.666666H170.666667a42.666667 42.666667 0 0 0-42.666667 42.666666V469.333333a42.666667 42.666667 0 0 0 42.666667 42.666667h85.333333V554.666667a256 256 0 1 0 512 0v-42.666667z m-85.333333 0V554.666667a170.666667 170.666667 0 0 1-341.333334 0v-42.666667h341.333334z m-384-128v-85.333333h85.333333v85.333333H298.666667z m0-128v-85.333333h85.333333v85.333333H298.666667z m0-128v-85.333333h85.333333v85.333333H298.666667z"  horiz-adv-x="1024" />
      
      <glyph glyph-name="workfolw-anquanlanjie" unicode="&#59522;" d="M0 896m170.666667 0l682.666666 0q170.666667 0 170.666667-170.666667l0-682.666666q0-170.666667-170.666667-170.666667l-682.666666 0q-170.666667 0-170.666667 170.666667l0 682.666666q0 170.666667 170.666667 170.666667ZM506.88 682.666667l229.12-50.901334a27.861333 27.861333 0 0 0 21.802667-27.221333v-278.4a167.253333 167.253333 0 0 0-74.453334-139.178667l-176.426666-117.632-176.426667 117.632A167.253333 167.253333 0 0 0 256 326.144V604.544c0 13.056 9.088 24.362667 21.845333 27.221333L506.88 682.666667z m0-167.253334a55.765333 55.765333 0 0 1-27.861333-104.106666v-118.954667h55.765333v119.04a55.722667 55.722667 0 0 1-27.861333 104.021333z"  horiz-adv-x="1024" />
      
      <glyph glyph-name="shiyongshouce1xuanzhong" unicode="&#59562;" d="M512 810.666667c235.648 0 426.666667-191.018667 426.666667-426.666667s-191.018667-426.666667-426.666667-426.666667S85.333333 148.352 85.333333 384 276.352 810.666667 512 810.666667z m42.666667-554.666667h-85.333334v-85.333333h85.333334v85.333333z m-42.666667 362.666667a149.376 149.376 0 0 1-146.474667-120.021334l83.712-16.768A64 64 0 1 0 512 405.333333a42.666667 42.666667 0 0 1-42.666667-42.666666V298.666667h85.333334v27.52A149.418667 149.418667 0 0 1 512 618.666667z"  horiz-adv-x="1024" />
      
      <glyph glyph-name="shiyongshouce" unicode="&#59563;" d="M512-42.666667C276.352-42.666667 85.333333 148.352 85.333333 384S276.352 810.666667 512 810.666667s426.666667-191.018667 426.666667-426.666667-191.018667-426.666667-426.666667-426.666667z m0 85.333334a341.333333 341.333333 0 1 1 0 682.666666 341.333333 341.333333 0 0 1 0-682.666666z m-42.666667 213.333333h85.333334v-85.333333h-85.333334v85.333333z m85.333334 70.186667V298.666667h-85.333334v64a42.666667 42.666667 0 0 0 42.666667 42.666666 64 64 0 1 1-62.762667 76.544l-83.712 16.768A149.376 149.376 0 1 0 554.666667 326.186667z"  horiz-adv-x="1024" />
      
      <glyph glyph-name="a-ArrayBoolean" unicode="&#59548;" d="M896 800a64 64 0 0 0 64-64v-576a64 64 0 0 0-64-64h-64v512a64 64 0 0 1-56.512 63.552L768 672H192v64a64 64 0 0 0 64 64h640zM131.2 672h640a64 64 0 0 0 64-64v-576a64 64 0 0 0-64-64h-640a64 64 0 0 0-64 64v576a64 64 0 0 0 64 64z m228.544-123.456a228.544 228.544 0 1 1 91.52-438.08l10.432-4.288a228.544 228.544 0 1 1 0 427.648l-10.56-4.288a226.944 226.944 0 0 1-91.392 19.008z m182.912-45.696a182.848 182.848 0 1 0 0-365.696 182.848 182.848 0 0 0 0 365.696z"  horiz-adv-x="1024" />
      
      <glyph glyph-name="file-excel" unicode="&#59549;" d="M682.688 810.688L896 597.312v-597.632a42.368 42.368 0 0 0-42.368-42.368H170.368A42.688 42.688 0 0 0 128-0.32V768.32c0 23.424 19.008 42.368 42.368 42.368h512.32zM563.2 384l119.488 170.688h-102.4L512 457.152 443.712 554.688h-102.4L460.8 384l-119.488-170.688h102.4L512 310.848l68.288-97.536h102.4L563.2 384z"  horiz-adv-x="1024" />
      
      <glyph glyph-name="file-image" unicode="&#59550;" d="M853.312 682.688H170.688v-597.376L567.168 481.92c16.64 16.64 43.648 16.64 60.288 0l225.92-226.304V682.688z m-768 42.88c0 23.424 19.456 42.432 42.368 42.432h768.64c23.424 0 42.368-19.008 42.368-42.368v-683.264a42.688 42.688 0 0 0-42.368-42.368H127.68a42.368 42.368 0 0 0-42.368 42.368V725.632z m256-298.88a85.312 85.312 0 1 0 0 170.624 85.312 85.312 0 0 0 0-170.624z"  horiz-adv-x="1024" />
      
      <glyph glyph-name="file-ppt" unicode="&#59551;" d="M682.688 810.688L896 597.312v-597.632a42.368 42.368 0 0 0-42.368-42.368H170.368A42.688 42.688 0 0 0 128-0.32V768.32c0 23.424 19.008 42.368 42.368 42.368h512.32z m-341.376-256v-341.376h85.376V298.688h256v256H341.312z m85.376-85.376h170.624V384H426.688V469.312z"  horiz-adv-x="1024" />
      
      <glyph glyph-name="file-txt" unicode="&#59552;" d="M682.688 810.688L896 597.312v-597.632a42.368 42.368 0 0 0-42.368-42.368H170.368A42.688 42.688 0 0 0 128-0.32V768.32c0 23.424 19.008 42.368 42.368 42.368h512.32z m0-256H341.312v-85.312h128v-256h85.376v256h128V554.752z"  horiz-adv-x="1024" />
      
      <glyph glyph-name="file-code" unicode="&#59553;" d="M128 768h768c23.552 0 42.688-19.072 42.688-42.688v-682.624A42.688 42.688 0 0 0 896 0H128a42.688 42.688 0 0 0-42.688 42.688V725.312C85.312 748.928 104.448 768 128 768z m574.464-534.848L853.312 384l-150.848 150.848-60.288-60.352L732.672 384l-90.496-90.496 60.288-60.352zM291.328 384l90.56 90.496-60.352 60.352L170.688 384l150.848-150.848 60.288 60.352L291.392 384z m188.416-213.312l155.328 426.624h-90.88l-155.264-426.624h90.88z"  horiz-adv-x="1024" />
      
      <glyph glyph-name="file-default" unicode="&#59554;" d="M529.664 682.688H896c23.552 0 42.688-19.136 42.688-42.688v-597.312A42.688 42.688 0 0 0 896 0H128a42.688 42.688 0 0 0-42.688 42.688V725.312C85.312 748.928 104.448 768 128 768h316.352l85.312-85.312zM469.312 384h-128v-85.312h128v-128h85.376v128h128V384h-128V512H469.312v-128z"  horiz-adv-x="1024" />
      
      <glyph glyph-name="file-doc" unicode="&#59555;" d="M682.688 810.688L896 597.312v-597.632a42.368 42.368 0 0 0-42.368-42.368H170.368A42.688 42.688 0 0 0 128-0.32V768.32c0 23.424 19.008 42.368 42.368 42.368h512.32z m-85.376-256V341.76L512 426.688 427.136 341.312l-0.448 213.376H341.312v-341.376h85.376L512 298.688l85.312-85.376h85.376V554.688H597.312z"  horiz-adv-x="1024" />
      
      <glyph glyph-name="canshucuowu" unicode="&#59556;" d="M548.928 757.312l406.464-704a42.688 42.688 0 0 0-36.928-64H105.536a42.688 42.688 0 0 0-36.928 64l406.4 704a42.688 42.688 0 0 0 73.92 0z m-79.616-554.624v-85.376h85.376v85.376H469.312z m0 298.624V288h85.376V501.312H469.312z"  horiz-adv-x="1024" />
      
      <glyph glyph-name="zifuchuanstring" unicode="&#59557;" d="M320.512 392.384L219.648 466.176c-18.688 13.12-28.032 26.24-28.032 53.248V592.32c0 25.216 12.16 37.376 37.376 37.376h12.16c25.152 0 37.312-12.16 37.312-37.376V477.44h98.112V596.032c0 80.32-40.192 120.512-120.512 120.512h-42.048c-81.28 0-121.408-40.192-121.408-121.408v-89.728c0-50.432 13.056-81.28 57.92-113.024l100.864-73.792c18.688-14.016 28.032-26.112 28.032-53.248v-89.6c0-25.28-12.16-37.44-38.336-37.44h-13.056c-26.176 0-38.272 12.16-38.272 37.376V310.208H92.608v-138.24c0-80.32 39.232-120.512 120.448-120.512h43.904c81.28 0 121.472 40.192 121.472 121.408V279.36c0 53.248-14.08 81.28-57.92 113.024z m223.232 95.36h49.536V569.856h-49.536V653.952H449.408v-84.032h-33.6V487.68h33.6v-430.592h94.336V487.68z m86.912-430.72h94.336V440.128c19.584 17.728 43.904 27.072 78.464 29.888V574.528c-37.376 0-57.92-18.624-79.36-59.776v55.168h-93.44v-512.832z m300.8 124.288h-94.4v-124.224h94.336v124.16z"  horiz-adv-x="1024" />
      
      <glyph glyph-name="duixiangObject" unicode="&#59558;" d="M361.664 234.112V621.248c0 74.496-36.8 111.36-111.36 111.36H201.6c-74.496 0-111.36-36.864-111.36-111.36v-387.136c0-74.496 36.864-111.36 111.36-111.36h48.832c74.496 0 111.36 36.864 111.36 111.36zM270.08 616.96v-378.56c0-24-11.136-35.136-34.304-35.136H216.96c-24 0-35.136 11.136-35.136 35.2V616.96c0 24 11.136 35.136 35.136 35.136h18.816c23.168 0 34.304-11.136 34.304-35.2z m142.144-489.024h85.632v28.224c19.712-17.088 46.272-33.408 82.24-33.408h0.832c52.288 0 80.512 33.408 80.512 88.256v304c0 54.848-28.224 88.256-80.512 88.256h-0.832c-35.968 0-61.696-17.984-81.344-36.864V736H412.16v-608.064z m86.528 381.12c12.8 9.408 28.224 15.36 45.376 15.36 20.544 0 30.848-8.512 30.848-29.056v-264.64c0-20.608-10.304-29.12-30.848-29.12-17.152 0-32.576 5.952-45.44 15.36V509.12z m211.52 128.448h89.92V721.472h-89.92V637.44z m88.192-39.424h-86.464v-469.312c0-15.36-8.576-24-24-24h-7.68V32h29.12c59.904 0 89.024 29.12 89.024 89.92v476.16z m135.36-356.224h-86.528v-113.92h86.528v113.92z"  horiz-adv-x="1024" />
      
      <glyph glyph-name="zhengshuinteger" unicode="&#59559;" d="M93.184 29.184h103.424V704H93.184v-674.816z m165.888 0h103.424V485.888c19.456 11.264 35.84 17.408 55.296 17.408 23.552 0 33.792-10.24 33.792-32.768v-441.344h103.424V501.248c0 62.464-30.72 96.256-90.112 96.256h-5.12c-43.008 0-71.68-19.456-98.304-43.008V591.36h-102.4v-562.176z m479.232 472.064h54.272V591.36h-54.272V683.52H634.88v-92.16h-36.864v-90.112h36.864v-472.064h103.424V501.248z m194.56-335.872H829.44v-136.192h103.424v136.192z"  horiz-adv-x="1024" />
      
      <glyph glyph-name="buerzhiBoolean" unicode="&#59560;" d="M640 704a320 320 0 1 0-128-613.376l-9.536-3.968a320 320 0 1 0 10.304 590.4l-0.64 0.256A317.568 317.568 0 0 0 640 704zM384 640a256 256 0 1 1 0-512 256 256 0 0 1 0 512z"  horiz-adv-x="1024" />
      
      <glyph glyph-name="shuziNumber" unicode="&#59561;" d="M384.512 285.888l-102.4 491.584h-128v-786.944h98.304l-1.024 526.08 111.616-526.08h118.784V777.472H383.488l1.024-491.52z m160.768-186.944h324.608v-108.416H545.28z m324.608 210.56V641.856c0 89.088-44.032 133.12-133.12 133.12H678.4c-89.088 0-133.12-44.032-133.12-133.12v-332.352c0-89.088 44.032-133.12 133.12-133.12h58.368c89.088 0 133.12 44.032 133.12 133.12zM760.32 636.736v-322.112c0-28.672-13.312-41.984-40.96-41.984h-22.528c-28.672 0-41.984 13.312-41.984 41.984V636.736c0 28.672 13.312 41.984 41.984 41.984h22.528c27.648 0 40.96-13.312 40.96-41.984z"  horiz-adv-x="1024" />
      
      <glyph glyph-name="a-Arrayfile-txt" unicode="&#59514;" d="M714.176 829.312l183.104-183.104v-513.024a36.352 36.352 0 0 0-36.352-36.352h-73.792l0.064 391.872-183.104 183.04-366.016 0.128V792.96c0 20.096 16.32 36.352 36.416 36.352h439.68zM604.096 671.808L787.2 488.704v-513.024a36.352 36.352 0 0 0-36.352-36.352H164.352A36.608 36.608 0 0 0 128-24.32V635.52c0 20.032 16.32 36.288 36.352 36.288H604.16z m0-219.712H311.104V378.88h109.888v-219.776h73.216V378.88H604.16V452.096z"  horiz-adv-x="1024" />
      
      <glyph glyph-name="a-Arrayfile-ppt" unicode="&#59515;" d="M714.176 829.312l183.104-183.104v-513.024a36.352 36.352 0 0 0-36.352-36.352h-73.792l0.064 391.872-183.104 183.04-366.016 0.128V792.96c0 20.096 16.32 36.352 36.416 36.352h439.68zM604.096 671.808L787.2 488.704v-513.024a36.352 36.352 0 0 0-36.352-36.352H164.352A36.608 36.608 0 0 0 128-24.32V635.52c0 20.032 16.32 36.288 36.352 36.288H604.16zM311.104 452.096v-292.992h73.28V232.32h219.712V452.096H311.104z m73.28-73.28h146.496v-73.216h-146.56V378.816z"  horiz-adv-x="1024" />
      
      <glyph glyph-name="a-Arrayfile-excel" unicode="&#59539;" d="M714.176 829.312l183.104-183.104v-513.024a36.352 36.352 0 0 0-36.352-36.352h-73.792l0.064 391.872-183.104 183.04-366.016 0.128V792.96c0 20.096 16.32 36.352 36.416 36.352h439.68zM604.096 671.808L787.2 488.704v-513.024a36.352 36.352 0 0 0-36.352-36.352H164.352A36.608 36.608 0 0 0 128-24.32V635.52c0 20.032 16.32 36.288 36.352 36.288h439.68zM501.568 305.6l102.528 146.496H516.224L457.6 368.384l-58.624 83.712H311.104l102.528-146.56-102.528-146.432h87.872l58.624 83.712 58.624-83.712h87.872L501.568 305.6z"  horiz-adv-x="1024" />
      
      <glyph glyph-name="a-Arrayfile-image" unicode="&#59540;" d="M755.2 581.632H140.8v-537.6l356.8 356.864a38.4 38.4 0 0 0 54.336 0l203.264-203.648V581.632zM64 620.288a38.4 38.4 0 0 0 38.08 38.144h691.84c21.056 0 38.08-17.088 38.08-38.144v-614.912a38.4 38.4 0 0 0-38.08-38.144H102.08A38.144 38.144 0 0 0 64 5.376V620.288z m230.4-269.056a76.8 76.8 0 1 0 0 153.6 76.8 76.8 0 0 0 0-153.6zM923.2 786.432c21.056 0 38.08-17.088 38.08-38.144v-614.912a38.4 38.4 0 0 0-38.08-38.144L832 95.296V620.288a38.144 38.144 0 0 1-31.936 37.632l-6.144 0.512H193.28V748.288a38.4 38.4 0 0 0 38.08 38.144h691.84z"  horiz-adv-x="1024" />
      
      <glyph glyph-name="a-Arrayfile-code" unicode="&#59541;" d="M102.4 658.432h691.2a38.4 38.4 0 0 0 38.4-38.4v-614.4a38.4 38.4 0 0 0-38.4-38.4H102.4a38.4 38.4 0 0 0-38.4 38.4v614.4a38.4 38.4 0 0 0 38.4 38.4z m517.056-481.344L755.2 312.832 619.456 448.576l-54.336-54.272 81.472-81.472-81.472-81.472 54.336-54.272zM249.408 312.832L330.88 394.304l-54.336 54.272L140.8 312.832l135.744-135.744 54.336 54.272-81.472 81.472z m169.6-192l139.712 384H476.992l-139.712-384h81.728zM923.2 786.432c21.056 0 38.08-17.088 38.08-38.144v-614.912a38.4 38.4 0 0 0-38.08-38.144L832 95.296V620.288a38.144 38.144 0 0 1-31.936 37.632l-6.144 0.512H193.28V748.288a38.4 38.4 0 0 0 38.08 38.144h691.84z"  horiz-adv-x="1024" />
      
      <glyph glyph-name="a-Arrayfile-doc" unicode="&#59542;" d="M604.096 671.808L787.2 488.704v-513.024a36.352 36.352 0 0 0-36.352-36.352H164.352A36.608 36.608 0 0 0 128-24.32V635.52c0 20.032 16.32 36.288 36.352 36.288h439.68zM530.816 452.096v-182.72L457.6 342.208 384.768 268.928l-0.384 183.168H311.04v-292.992h73.28L457.6 232.32l73.216-73.216H604.16V452.096H530.816zM714.176 829.312l183.104-183.104v-513.024a36.352 36.352 0 0 0-36.352-36.352h-73.792l0.064 391.872-183.104 183.04-366.016 0.128V792.96c0 20.096 16.32 36.352 36.416 36.352h439.68z"  horiz-adv-x="1024" />
      
      <glyph glyph-name="a-Arrayfile-default" unicode="&#59543;" d="M515.136 786.432l76.8-76.8H921.6a38.4 38.4 0 0 0 38.4-38.4v-537.6a38.4 38.4 0 0 0-38.4-38.4H832v448a38.4 38.4 0 0 1-32.192 37.888l-6.208 0.512H463.936l-76.8 76.8H192v89.6a38.4 38.4 0 0 0 38.4 38.4h284.736zM463.936 581.632H793.6a38.4 38.4 0 0 0 38.4-38.4v-537.6a38.4 38.4 0 0 0-38.4-38.4H102.4a38.4 38.4 0 0 0-38.4 38.4v614.4a38.4 38.4 0 0 0 38.4 38.4h284.736l76.8-76.8z m-54.336-268.8H294.4v-76.8h115.2v-115.2h76.8v115.2h115.2v76.8H486.4v115.2H409.6v-115.2z"  horiz-adv-x="1024" />
      
      <glyph glyph-name="a-ArrayObeject" unicode="&#59544;" d="M896 800a64 64 0 0 0 64-64v-576a64 64 0 0 0-64-64h-64v512a64 64 0 0 1-56.512 63.552L768 672H192v64a64 64 0 0 0 64 64h640zM771.2 672a64 64 0 0 0 64-64v-576a64 64 0 0 0-64-64h-640a64 64 0 0 0-64 64v576a64 64 0 0 0 64 64h640z m-111.68-196.288h-62.848V134.4c0-11.2-6.272-17.472-17.472-17.472h-5.632V64h21.184c43.648 0 64.768 21.12 64.768 65.408V475.712zM260.928 573.504h-35.52c-54.208 0-80.96-26.752-80.96-80.96v-281.6c0-54.144 26.752-80.896 80.96-80.896h35.52c54.144 0 80.96 26.752 80.96 80.96V492.544c0 54.208-26.816 80.96-80.96 80.96zM441.536 576h-62.912v-442.24h62.272v20.544c14.336-12.416 33.664-24.32 59.84-24.32h0.64c37.952 0 58.496 24.32 58.496 64.192V415.36c0 39.872-20.48 64.128-58.56 64.128h-0.64c-26.112 0-44.8-13.056-59.136-26.752V576z m316.416-359.424h-62.912v-82.816h62.912v82.816zM474.56 422.144c14.976 0 22.4-6.208 22.4-21.12v-192.512c0-14.976-7.424-21.184-22.4-21.184a55.488 55.488 0 0 0-33.024 11.2V410.944a55.488 55.488 0 0 0 33.024 11.2z m-224.256 92.8c16.832 0 24.96-8.064 24.96-25.536v-275.328c0-17.408-8.128-25.536-24.96-25.536h-13.696c-17.408 0-25.536 8.128-25.536 25.6V489.344c0 17.472 8.128 25.6 25.6 25.6h13.632z m410.496 50.496H595.392v-61.056h65.408v61.056z"  horiz-adv-x="1024" />
      
      <glyph glyph-name="a-ArrayString" unicode="&#59545;" d="M896 800a64 64 0 0 0 64-64v-576a64 64 0 0 0-64-64h-64v512a64 64 0 0 1-56.512 63.552L768 672H192v64a64 64 0 0 0 64 64h640zM128 672h640a64 64 0 0 0 64-64v-576a64 64 0 0 0-64-64H128a64 64 0 0 0-64 64v576a64 64 0 0 0 64 64z m168.512-345.344l-79.808 58.368c-14.72 10.368-22.144 20.672-22.144 42.112v57.6c0 19.968 9.6 29.632 29.568 29.632h9.6c19.904 0 29.568-9.6 29.568-29.568v-90.88h77.568V487.68c0 63.552-31.808 95.36-95.36 95.36h-33.28c-64.256 0-96-31.808-96-96.128v-70.912c0-39.936 10.368-64.32 45.824-89.408l79.808-58.368c14.72-11.072 22.144-20.672 22.144-42.112v-70.976c0-19.904-9.6-29.568-30.272-29.568H223.36c-20.672 0-30.272 9.6-30.272 29.568V261.632H116.224v-109.376c0-63.552 31.04-95.36 95.36-95.36h34.688c64.32 0 96.064 31.808 96.064 96.128v84.224c0 42.112-11.072 64.256-45.824 89.408z m176.64 75.392h39.104V467.072h-39.104V533.568H398.464v-66.56h-26.56v-64.96h26.56v-340.672h74.688V402.048z m68.672-340.672h74.624V364.352c15.552 14.08 34.752 21.44 62.08 23.68V470.656c-29.568 0-45.824-14.72-62.784-47.296v43.648H541.824v-405.696z m237.952 98.304h-74.624v-98.304h74.624v98.304z"  horiz-adv-x="1024" />
      
      <glyph glyph-name="a-ArrayNumber" unicode="&#59546;" d="M896 800a64 64 0 0 0 64-64v-576a64 64 0 0 0-64-64h-64v512a64 64 0 0 1-56.512 63.552L768 672H192v64a64 64 0 0 0 64 64h640zM128 672h640a64 64 0 0 0 64-64v-576a64 64 0 0 0-64-64H128a64 64 0 0 0-64 64v576a64 64 0 0 0 64 64z m225.664-424.576L277.888 611.2h-94.72v-582.272H256l-0.768 389.248 82.56-389.248h87.936V611.2H352.896l0.768-363.712z m118.976-138.304h240.128v-80.256H472.64z m240.128 155.776V510.72c0 65.92-32.576 98.496-98.496 98.496h-43.136c-65.92 0-98.56-32.64-98.56-98.56V264.96c0-65.92 32.64-98.56 98.56-98.56h43.136c65.92 0 98.56 32.64 98.56 98.56zM631.744 507.008v-238.336c0-21.184-9.856-31.04-30.336-31.04h-16.64c-21.248 0-31.104 9.856-31.104 31.04V507.008c0 21.184 9.856 31.04 31.104 31.04h16.64c20.48 0 30.336-9.856 30.336-31.04z"  horiz-adv-x="1024" />
      
      <glyph glyph-name="a-ArrayInteger" unicode="&#59547;" d="M896 800a64 64 0 0 0 64-64v-576a64 64 0 0 0-64-64h-64v512a64 64 0 0 1-56.512 63.552L768 672H192v64a64 64 0 0 0 64 64h640zM128 672h640a64 64 0 0 0 64-64v-576a64 64 0 0 0-64-64H128a64 64 0 0 0-64 64v576a64 64 0 0 0 64 64z m1.472-608h78.464V576H129.472v-512z m125.824 0h78.528V410.496c14.72 8.576 27.136 13.184 41.92 13.184 17.92 0 25.6-7.68 25.6-24.832V64h78.528V422.144c0 47.36-23.296 73.024-68.416 73.024h-3.84c-32.64 0-54.4-14.72-74.624-32.64v27.968H255.36V64z m363.648 358.144h41.152V490.496h-41.152V560.448H540.48v-69.952h-27.968v-68.352h27.968V64H618.88V422.144z m147.584-254.784h-78.464V64h78.464v103.36z"  horiz-adv-x="1024" />
      
      <glyph glyph-name="LLM" unicode="&#59536;" d="M128 682.666667v-597.333334h170.666667v85.333334H213.333333V682.666667H128z m213.333333 0v-597.333334h170.666667v85.333334h-85.333333V682.666667H341.333333z m341.333334 0h-128v-597.333334h85.333333V512l42.666667-426.666667h85.333333l42.666667 426.666667v-426.666667h85.333333V682.666667h-128l-42.666667-341.333334-42.666666 341.333334z"  horiz-adv-x="1024" />
      
      <glyph glyph-name="gongzuoliu" unicode="&#59537;" d="M375.04 592.853333A128.042667 128.042667 0 0 0 469.333333 469.333333v-170.666666a213.418667 213.418667 0 0 1 176.896-210.218667A128.042667 128.042667 0 0 1 896 128a128 128 0 0 1-247.04 47.146667A128.042667 128.042667 0 0 0 554.666667 298.666667v170.666666a212.394667 212.394667 0 0 1-42.666667 128h135.253333a128.042667 128.042667 0 1 1 0 85.333334H376.746667a128.042667 128.042667 0 1 1-1.706667-89.813334z"  horiz-adv-x="1024" />
      
      <glyph glyph-name="duihualiu" unicode="&#59538;" d="M917.333333 565.333333a42.666667 42.666667 0 0 0 42.666667-42.666666v-576l-190.037333 149.333333H405.333333a42.666667 42.666667 0 0 0-42.666666 42.666667v42.666666h436.778666l75.221334-59.093333V565.333333h42.666666z m-170.666666 256a42.666667 42.666667 0 0 0 42.666666-42.666666v-512H254.08L64 117.333333V778.666667a42.666667 42.666667 0 0 0 42.666667 42.666666h640z m-42.666667-85.333333h-554.666667v-443.093333l75.221334 59.093333H704v384zM566.357333 682.666667v-85.504H468.906667v-192.981334H384.426667V597.162667H285.184V682.666667h281.173333z"  horiz-adv-x="1024" />
      
      <glyph glyph-name="wenbenshengcheng" unicode="&#59535;" d="M830.592 482.389333l10.496 24.149334a186.154667 186.154667 0 0 0 94.72 96l32.384 14.464a22.613333 22.613333 0 0 1 0 41.088l-30.592 13.610666a186.282667 186.282667 0 0 0-96.042667 99.242667l-10.794666 26.069333a21.589333 21.589333 0 0 1-40.192 0l-10.794667-26.026666a186.282667 186.282667 0 0 0-96-99.285334l-30.634667-13.653333a22.613333 22.613333 0 0 1 0-41.045333l32.426667-14.421334a186.154667 186.154667 0 0 0 94.677333-96.042666l10.496-24.149334c7.68-17.664 32.128-17.664 39.850667 0zM42.666667 682.666667a42.666667 42.666667 0 0 0 42.666666 42.666666h469.333334v-85.333333H128v-597.333333h682.666667v341.333333h85.333333v-384a42.666667 42.666667 0 0 0-42.666667-42.666667H85.333333a42.666667 42.666667 0 0 0-42.666666 42.666667V682.666667z m213.333333-170.666667h426.666667v-128h-85.333334v42.666667h-85.333333v-170.666667h64v-85.333333h-213.333333v85.333333H426.666667v170.666667H341.333333v-42.666667H256V512z"  horiz-adv-x="1024" />
      
      <glyph glyph-name="anquanlanjie" unicode="&#59534;" d="M0 896m64 0l896 0q64 0 64-64l0-896q0-64-64-64l-896 0q-64 0-64 64l0 896q0 64 64 64ZM728 432h-240v-177.184c0-37.504 18.656-72.544 49.792-93.408l25.984-17.408H319.84a23.84 23.84 0 0 0-23.84 23.808V600.192c0 12.896 10.72 23.808 23.968 23.808h287.968l120.064-120v-72z m-192-48h192v-129.184c0-21.504-10.688-41.6-28.48-53.536l-67.52-45.216-67.52 45.216c-17.792 11.936-28.48 32.032-28.48 53.536V384z"  horiz-adv-x="1024" />
      
      <glyph glyph-name="shangdian1xuanzhong" unicode="&#59532;" d="M938.666667 42.666667v-85.333334H85.333333v85.333334h42.666667v288.341333A191.829333 191.829333 0 0 0 42.666667 490.666667c0 35.285333 9.557333 69.290667 27.008 98.261333L185.386667 789.333333a42.666667 42.666667 0 0 0 36.949333 21.333334H801.706667a42.666667 42.666667 0 0 0 36.949333-21.333334l115.328-199.765333c17.834667-29.610667 27.392-63.573333 27.392-98.901333 0-66.56-33.877333-125.226667-85.333333-159.658667V42.666667h42.666666zM246.997333 725.333333L143.189333 545.578667a106.666667 106.666667 0 0 1 190.549334-94.549334c14.293333 35.712 64.853333 35.712 79.189333 0a106.666667 106.666667 0 0 1 198.144 0c14.293333 35.712 64.853333 35.712 79.189333 0a106.666667 106.666667 0 1 1 190.165334 95.232L776.96 725.333333H247.04z"  horiz-adv-x="1024" />
      
      <glyph glyph-name="shangdian" unicode="&#59533;" d="M896 331.008V42.666667h42.666667v-85.333334H85.333333v85.333334h42.666667v288.341333A191.829333 191.829333 0 0 0 42.666667 490.666667c0 35.285333 9.557333 69.290667 27.008 98.261333L185.386667 789.333333a42.666667 42.666667 0 0 0 36.949333 21.333334H801.706667a42.666667 42.666667 0 0 0 36.949333-21.333334l115.328-199.765333c17.834667-29.610667 27.392-63.573333 27.392-98.901333 0-66.56-33.877333-125.226667-85.333333-159.658667z m-85.333333-31.146667a191.829333 191.829333 0 0 0-160 58.026667A191.829333 191.829333 0 0 0 512 298.624a191.829333 191.829333 0 0 0-138.666667 59.178667A191.829333 191.829333 0 0 0 213.333333 299.818667V42.666667h597.333334v257.152zM246.997333 725.333333L143.189333 545.578667a106.666667 106.666667 0 0 1 190.549334-94.549334c14.293333 35.712 64.853333 35.712 79.189333 0a106.666667 106.666667 0 0 1 198.144 0c14.293333 35.712 64.853333 35.712 79.189333 0a106.666667 106.666667 0 1 1 190.165334 95.232L776.96 725.333333H247.04z"  horiz-adv-x="1024" />
      
      <glyph glyph-name="changjing1xuanzhong" unicode="&#59525;" d="M840.021333 402.858667l8.746667-4.778667a213.333333 213.333333 0 1 0-279.125333-310.442667 298.453333 298.453333 0 0 1 0.042666 251.306667 213.333333 213.333333 0 0 0 270.336 63.914667zM276.053333 425.514667a298.453333 298.453333 0 0 1 217.685334-125.696 213.333333 213.333333 0 1 0-217.685334 125.696zM520.405333 810.666667a213.333333 213.333333 0 0 0 195.072-299.818667 298.410667 298.410667 0 0 1-217.642666-125.653333A213.333333 213.333333 0 0 0 520.448 810.666667z"  horiz-adv-x="1024" />
      
      <glyph glyph-name="xitong1xuanzhong" unicode="&#59526;" d="M512 853.333333l405.333333-234.666666v-469.333334L512-85.333333l-405.333333 234.666666v469.333334L512 853.333333z m0-597.333333a128 128 0 1 1 0 256 128 128 0 0 1 0-256z"  horiz-adv-x="1024" />
      
      <glyph glyph-name="changjing1" unicode="&#59527;" d="M526.122667 725.333333a170.666667 170.666667 0 0 0 157.696-236.074666 255.829333 255.829333 0 0 1-179.882667-103.850667A170.752 170.752 0 0 0 355.456 554.666667a170.666667 170.666667 0 0 0 170.666667 170.666666z m245.930666-242.005333a256 256 0 1 1-491.818666 0 256 256 0 1 1 245.930666-425.941333 256 256 0 1 1 245.888 425.941333z m-196.693333-352.512a255.829333 255.829333 0 0 1 0.042667 207.658667 170.709333 170.709333 0 1 0 0-207.658667z m-76.330667 169.258667a170.709333 170.709333 0 1 0-179.84 103.850666 255.829333 255.829333 0 0 1 179.84-103.850666z"  horiz-adv-x="1024" />
      
      <glyph glyph-name="gongzuoliu1xuanzhong" unicode="&#59528;" d="M768 768a128 128 0 1 0-120.704-170.666667h-135.253333c26.752-35.669333 42.624-79.957333 42.624-128v-170.666666c0-59.008 39.978667-108.714667 94.293333-123.52a128 128 0 1 0-2.730667-86.656A213.333333 213.333333 0 0 0 469.333333 298.666667v170.666666a128.042667 128.042667 0 0 1-94.293333 123.52h-0.128l-1.066667-2.901333A128 128 0 1 0 376.704 682.666667h270.592A128.042667 128.042667 0 0 0 768 768z"  horiz-adv-x="1024" />
      
      <glyph glyph-name="moxing1" unicode="&#59529;" d="M490.666667 853.333333L896 618.666667v-469.333334L490.666667-85.333333 85.333333 149.333333v469.333334L490.666667 853.333333zM213.077333 594.005333l277.589334-160.682666 277.589333 160.682666L490.666667 754.773333 213.077333 594.005333zM170.666667 519.978667v-321.450667l277.333333-160.554667v321.450667L170.666667 519.978667z m362.666666-482.005334l277.333334 160.554667V519.978667l-277.333334-160.554667v-321.450667z"  horiz-adv-x="1024" />
      
      <glyph glyph-name="gongju1xuanzhong" unicode="&#59530;" d="M298.666667 640V768a42.666667 42.666667 0 0 0 42.666666 42.666667h341.333334a42.666667 42.666667 0 0 0 42.666666-42.666667v-128h170.666667a42.666667 42.666667 0 0 0 42.666667-42.666667v-597.333333a42.666667 42.666667 0 0 0-42.666667-42.666667H128a42.666667 42.666667 0 0 0-42.666667 42.666667V597.333333a42.666667 42.666667 0 0 0 42.666667 42.666667h170.666667z m426.666666-341.333333v128h-85.333333v-128H384v128H298.666667v-128H170.666667v-256h682.666666v256h-128zM384 725.333333v-85.333333h256V725.333333H384z"  horiz-adv-x="1024" />
      
      <glyph glyph-name="gongju1" unicode="&#59531;" d="M298.666667 640V768a42.666667 42.666667 0 0 0 42.666666 42.666667h341.333334a42.666667 42.666667 0 0 0 42.666666-42.666667v-128h170.666667a42.666667 42.666667 0 0 0 42.666667-42.666667v-597.333333a42.666667 42.666667 0 0 0-42.666667-42.666667H128a42.666667 42.666667 0 0 0-42.666667 42.666667V597.333333a42.666667 42.666667 0 0 0 42.666667 42.666667h170.666667z m554.666666-341.333333H170.666667v-256h682.666666v256z m0 256H170.666667v-170.666667h128v85.333333h85.333333v-85.333333h256v85.333333h85.333333v-85.333333h128V554.666667zM384 725.333333v-85.333333h256V725.333333H384z"  horiz-adv-x="1024" />
      
      <glyph glyph-name="xiangmu1xuanzhong" unicode="&#59477;" d="M981.333333 768.128c-63.829333-128-106.666667-192-149.333333-234.666667l-42.666667-42.666666 64-42.666667c-42.666667-128-170.666667-277.333333-341.333333-298.666667-113.877333-14.208-185.002667-92.416-213.418667-234.666666H213.333333l2.730667 16.384C259.797333 195.328 354.56 768.128 981.333333 768.128zM276.053333 839.68l10.837334-26.026667a186.282667 186.282667 0 0 1 96-99.285333l30.634666-13.653333a22.613333 22.613333 0 0 0 0-41.045334l-32.426666-14.421333a186.154667 186.154667 0 0 1-94.677334-96.042667l-10.496-24.149333a21.589333 21.589333 0 0 0-39.850666 0l-10.496 24.149333a186.154667 186.154667 0 0 1-94.72 96l-32.384 14.464a22.613333 22.613333 0 0 0 0 41.088l30.592 13.610667a186.282667 186.282667 0 0 1 96.042666 99.242667l10.794667 26.069333a21.589333 21.589333 0 0 0 40.192 0z"  horiz-adv-x="1024" />
      
      <glyph glyph-name="zhishi1xuanzhong" unicode="&#59478;" d="M853.333333 810.666667a42.666667 42.666667 0 0 0 42.666667-42.666667v-597.333333H277.333333a64 64 0 0 1 0-128H896v-42.666667a42.666667 42.666667 0 0 0-42.666667-42.666667H277.333333A149.333333 149.333333 0 0 0 128 106.666667V682.666667a128 128 0 0 0 128 128h597.333333z m-85.333333-42.666667h-298.666667v-298.666667l149.333334 85.333334 149.333333-85.333334V768z"  horiz-adv-x="1024" />
      
      <glyph glyph-name="moxing1xuanzhong" unicode="&#59476;" d="M874.752 630.954667L512 841.002667 149.248 630.954667 512 420.949333l362.752 210.005334zM106.666667 557.013333v-420.010666l362.666666-210.005334v420.053334L106.666667 557.013333zM554.666667-72.96l362.666666 210.005333V557.013333l-362.666666-209.92v-420.096z"  horiz-adv-x="1024" />
      
      <glyph glyph-name="zhishi1" unicode="&#59479;" d="M128 106.666667V682.666667a128 128 0 0 0 128 128h597.333333a42.666667 42.666667 0 0 0 42.666667-42.666667v-768a42.666667 42.666667 0 0 0-42.666667-42.666667H277.333333A149.333333 149.333333 0 0 0 128 106.666667zM810.666667 42.666667v128H277.333333a64 64 0 0 1 0-128H810.666667zM426.666667 725.333333H256a42.666667 42.666667 0 0 1-42.666667-42.666666v-441.045334A148.736 148.736 0 0 0 277.333333 256H810.666667V725.333333h-85.333334v-341.333333l-149.333333 85.333333-149.333333-85.333333V725.333333z"  horiz-adv-x="1024" />
      
      <glyph glyph-name="yunying1xuanzhong" unicode="&#59480;" d="M841.088 506.538667l-10.496-24.149334a21.589333 21.589333 0 0 0-39.850667 0l-10.496 24.149334a186.154667 186.154667 0 0 1-94.72 96l-32.384 14.464a22.613333 22.613333 0 0 0 0 41.088l30.592 13.610666a186.282667 186.282667 0 0 1 96.042667 99.242667l10.794667 26.069333a21.589333 21.589333 0 0 0 40.192 0l10.794666-26.026666a186.282667 186.282667 0 0 1 96-99.285334l30.634667-13.653333a22.613333 22.613333 0 0 0 0-41.045333l-32.426667-14.421334a186.154667 186.154667 0 0 1-94.677333-96.042666zM896 0v398.549333A255.573333 255.573333 0 0 0 810.666667 384a254.805333 254.805333 0 0 0-128 34.261333V128h-85.333334v298.666667h71.765334A255.744 255.744 0 0 0 554.666667 640c0 29.909333 5.12 58.624 14.549333 85.333333H85.333333a42.666667 42.666667 0 0 1-42.666666-42.666666v-682.666667a42.666667 42.666667 0 0 1 42.666666-42.666667h768a42.666667 42.666667 0 0 1 42.666667 42.666667zM256 298.666667h85.333333v-170.666667H256v170.666667z m170.666667 256h85.333333v-426.666667h-85.333333V554.666667z"  horiz-adv-x="1024" />
      
      <glyph glyph-name="xiangmu1" unicode="&#59481;" d="M286.421333 549.205333l-10.496-24.149333a21.589333 21.589333 0 0 0-39.850666 0l-10.496 24.149333a186.154667 186.154667 0 0 1-94.72 96l-32.384 14.464a22.613333 22.613333 0 0 0 0 41.088l30.592 13.610667a186.282667 186.282667 0 0 1 96.042666 99.242667l10.794667 26.069333a21.589333 21.589333 0 0 0 40.192 0l10.794667-26.026667a186.282667 186.282667 0 0 1 96-99.285333l30.634666-13.653333a22.613333 22.613333 0 0 0 0-41.045334l-32.426666-14.421333a186.154667 186.154667 0 0 1-94.677334-96.042667z m69.162667-370.645333c7.509333 24.832 15.914667 49.450667 25.813333 76.032 87.722667 235.818667 233.813333 381.909333 472.490667 418.901333-21.888-48.768-42.581333-82.688-60.885333-100.992l-42.709334-42.752L690.005333 469.333333l62.122667-62.037333c-48.213333-88.96-143.488-159.786667-250.709333-173.184-56.192-7.04-104.917333-25.898667-145.834667-55.594667zM853.333333 426.794667l-42.666666 42.666666 42.794666 42.794667c42.624 42.709333 85.248 128 127.872 255.872-626.730667 0-721.536-572.8-765.269333-836.949333L213.333333-85.205333h85.248c28.416 142.250667 99.541333 220.458667 213.418667 234.666666 170.666667 21.333333 298.666667 149.333333 341.333333 277.333334z"  horiz-adv-x="1024" />
      
      <glyph glyph-name="yunying1" unicode="&#59482;" d="M841.088 506.538667l-10.496-24.149334a21.589333 21.589333 0 0 0-39.850667 0l-10.496 24.149334a186.154667 186.154667 0 0 1-94.72 96l-32.384 14.464a22.613333 22.613333 0 0 0 0 41.088l30.592 13.610666a186.282667 186.282667 0 0 1 96.042667 99.242667l10.794667 26.069333a21.589333 21.589333 0 0 0 40.192 0l10.794666-26.026666a186.282667 186.282667 0 0 1 96-99.285334l30.634667-13.653333a22.613333 22.613333 0 0 0 0-41.045333l-32.426667-14.421334a186.154667 186.154667 0 0 1-94.677333-96.042666zM42.666667 682.666667a42.666667 42.666667 0 0 0 42.666666 42.666666h469.333334v-85.333333H128v-597.333333h682.666667v341.333333h85.333333v-384a42.666667 42.666667 0 0 0-42.666667-42.666667H85.333333a42.666667 42.666667 0 0 0-42.666666 42.666667V682.666667z m213.333333-384h85.333333v-170.666667H256v170.666667z m170.666667 256h85.333333v-426.666667h-85.333333V554.666667z m170.666666-128h85.333334v-298.666667h-85.333334v298.666667z"  horiz-adv-x="1024" />
      
      <glyph glyph-name="xitong1" unicode="&#59483;" d="M512 853.333333l405.333333-234.666666v-469.333334L512-85.333333l-405.333333 234.666666v469.333334L512 853.333333z m0-98.602666L192 569.472v-370.944l320-185.258667 320 185.258667V569.472L512 754.730667zM512 213.333333a170.666667 170.666667 0 1 0 0 341.333334 170.666667 170.666667 0 0 0 0-341.333334z m0 85.333334a85.333333 85.333333 0 1 1 0 170.666666 85.333333 85.333333 0 0 1 0-170.666666z"  horiz-adv-x="1024" />
      
      <glyph glyph-name="gongzuoliu1" unicode="&#59524;" d="M375.04 592.853333A128.042667 128.042667 0 1 0 376.746667 682.666667h270.506666a128.042667 128.042667 0 1 0 0-85.333334H512c26.794667-35.669333 42.666667-79.957333 42.666667-128v-170.666666c0-59.050667 39.978667-108.714667 94.293333-123.52a128.042667 128.042667 0 1 0-2.730667-86.698667A213.418667 213.418667 0 0 0 469.333333 298.666667v170.666666a128.042667 128.042667 0 0 1-94.293333 123.52zM298.666667 640a42.666667 42.666667 0 1 1-85.333334 0 42.666667 42.666667 0 0 1 85.333334 0z m512 0a42.666667 42.666667 0 1 1-85.333334 0 42.666667 42.666667 0 0 1 85.333334 0z m0-512a42.666667 42.666667 0 1 1-85.333334 0 42.666667 42.666667 0 0 1 85.333334 0z"  horiz-adv-x="1024" />
      
      <glyph glyph-name="workflow-gongzuoliu" unicode="&#59521;" d="M0 896m170.666667 0l682.666666 0q170.666667 0 170.666667-170.666667l0-682.666666q0-170.666667-170.666667-170.666667l-682.666666 0q-170.666667 0-170.666667 170.666667l0 682.666666q0 170.666667 170.666667 170.666667ZM420.693333 523.221333a85.333333 85.333333 0 0 0 62.848-82.346666v-113.749334a142.250667 142.250667 0 0 1 117.930667-140.16 85.333333 85.333333 0 1 1 1.834667 57.813334 85.333333 85.333333 0 0 0-62.848 82.346666V440.874667c0 32-10.581333 61.568-28.458667 85.333333h90.197333c11.690667-33.109333 11.690667 90.026667 0 56.917333H421.802667a85.333333 85.333333 0 1 1-1.109334-59.904zM398.208 241.792h256v-56.874667h-256zM341.333333 554.666667m-85.333333 0a85.333333 85.333333 0 1 1 170.666667 0 85.333333 85.333333 0 1 1-170.666667 0ZM341.333333 298.666667a85.333333 85.333333 0 1 0 0-170.666667 85.333333 85.333333 0 0 0 0 170.666667z m0-28.458667a56.874667 56.874667 0 1 1 0-113.749333 56.874667 56.874667 0 0 1 0 113.749333zM682.666667 213.333333m-85.333334 0a85.333333 85.333333 0 1 1 170.666667 0 85.333333 85.333333 0 1 1-170.666667 0ZM682.666667 640a85.333333 85.333333 0 1 0 0-170.666667 85.333333 85.333333 0 0 0 0 170.666667z m0-28.458667a56.874667 56.874667 0 1 1 0-113.749333 56.874667 56.874667 0 0 1 0 113.749333z"  horiz-adv-x="1024" />
      
      <glyph glyph-name="workflow-damoxing" unicode="&#59520;" d="M0 896m170.666667 0l682.666666 0q170.666667 0 170.666667-170.666667l0-682.666666q0-170.666667-170.666667-170.666667l-682.666666 0q-170.666667 0-170.666667 170.666667l0 682.666666q0 170.666667 170.666667 170.666667ZM486.4 626.261333A102.4 102.4 0 0 1 332.8 537.6v-45.44c-21.034667-8.149333-39.338667-22.186667-52.693333-40.32-16.64-22.826667-24.106667-50.816-24.106667-80.64 0-39.978667 20.352-75.136 51.2-95.786667v-32.213333a115.2 115.2 0 0 1 179.2-95.786667V243.2c0 34.133333-8.448 55.936-22.016 70.613333-13.909333 15.061333-36.437333 26.24-71.808 32.128l8.405333 50.517334c33.365333-5.546667 62.506667-16 85.418667-33.664V626.261333z m51.2 0v-263.466666c22.869333 17.664 52.053333 28.117333 85.376 33.664l8.405333-50.517334c-35.328-5.845333-57.898667-17.066667-71.808-32.128-13.525333-14.677333-21.973333-36.48-21.973333-70.613333v-95.786667a115.2 115.2 0 0 1 179.2 95.786667v32.213333c32 21.333333 51.2 57.301333 51.2 95.744 0 29.866667-7.509333 57.856-24.149333 80.64a118.784 118.784 0 0 1-52.693334 40.362667V537.6a102.4 102.4 0 0 1-153.6 88.661333z"  horiz-adv-x="1024" />
      
      <glyph glyph-name="wenshujiansuo" unicode="&#59519;" d="M0 896m64 0l896 0q64 0 64-64l0-896q0-64-64-64l-896 0q-64 0-64 64l0 896q0 64 64 64ZM614.272 644.416a12.192 12.192 0 0 0 0.128-1.76v-517.312a12.608 12.608 0 0 0-14.624-12.288L277.984 157.632A25.088 25.088 0 0 0 256 182.208V585.792c0 12.352 9.376 22.848 21.984 24.576l321.792 44.576a12.736 12.736 0 0 0 14.496-10.56zM394.24 486.4H332.8l71.68-102.4-71.68-102.4h61.44l40.96 58.528 40.96-58.528h61.44L465.92 384l71.68 102.4h-61.44l-40.96-58.528-40.96 58.528zM614.4 607.328h128c14.144 0 25.6-11.104 25.6-24.8v-397.056a25.216 25.216 0 0 0-25.6-24.8h-128V607.328z"  horiz-adv-x="1024" />
      
      <glyph glyph-name="cai" unicode="&#59517;" d="M512 384m-512 0a512 512 0 1 1 1024 0 512 512 0 1 1-1024 0ZM268.178286 296.704h73.142857v292.571429h-73.142857a24.393143 24.393143 0 0 1-24.356572-24.356572v-243.821714c0-13.458286 10.898286-24.393143 24.356572-24.393143z m129.060571-31.524571l156.050286-156.050286c4.278857-4.278857 11.081143-4.754286 15.945143-1.097143l20.772571 15.579429a36.571429 36.571429 0 0 1 13.531429 38.253714l-28.16 110.445714H731.428571c26.916571 0 48.749714 21.869714 48.749715 48.786286v51.309714c0 6.363429-1.243429 12.653714-3.657143 18.541714L701.074286 574.171429a24.393143 24.393143 0 0 1-22.528 15.104h-264.045715a24.393143 24.393143 0 0 1-24.393142-24.356572v-282.477714c0-6.473143 2.56-12.690286 7.131428-17.261714z"  horiz-adv-x="1024" />
      
      <glyph glyph-name="zan" unicode="&#59518;" d="M512 384m-512 0a512 512 0 1 1 1024 0 512 512 0 1 1-1024 0ZM268.178286 471.296h73.142857v-292.571429h-73.142857a24.393143 24.393143 0 0 0-24.356572 24.356572V446.902857c0 13.458286 10.898286 24.393143 24.356572 24.393143z m129.060571 31.524571l156.050286 156.050286a12.178286 12.178286 0 0 0 15.945143 1.097143l20.772571-15.579429a36.571429 36.571429 0 0 0 13.531429-38.253714l-28.16-110.445714H731.428571c26.916571 0 48.749714-21.869714 48.749715-48.786286v-51.309714c0-6.363429-1.243429-12.653714-3.657143-18.541714L701.074286 193.828571a24.393143 24.393143 0 0 0-22.528-15.104h-264.045715a24.393143 24.393143 0 0 0-24.393142 24.356572v282.477714c0 6.473143 2.56 12.690286 7.131428 17.261714z"  horiz-adv-x="1024" />
      
      <glyph glyph-name="fasong" unicode="&#59516;" d="M910.378667 808l-808.32-269.44a21.482667 21.482667 0 0 1-1.194667-40.362667l375.36-150.144 190.208-380.416a21.482667 21.482667 0 0 1 39.893333 3.712L937.856 781.696a21.482667 21.482667 0 0 1-27.477333 26.304zM910.378667 808l-435.221334-295.68a85.333333 85.333333 0 0 1-28.266666-108.970667L666.453333-32.362667a21.482667 21.482667 0 0 1 39.893334 3.712L937.856 781.696a21.482667 21.482667 0 0 1-27.477333 26.304z"  horiz-adv-x="1024" />
      
      <glyph glyph-name="chajianleixing-apijieru" unicode="&#59513;" d="M128 768h768a64 64 0 0 0 64-64v-640a64 64 0 0 0-64-64H128a64 64 0 0 0-64 64V704a64 64 0 0 0 64 64zM864 576H160a32 32 0 0 1-32-32v-448a32 32 0 0 1 32-32h704a32 32 0 0 1 32 32V544a32 32 0 0 1-32 32zM584.576 489.6l-4.64-13.024-114.08-320-2.208-6.176h-56.224l4.64 13.024 114.08 320 2.208 6.176h56.224z m21.856-55.776l6.176-6.304 98.496-100.576 6.816-6.944-6.816-6.944-98.496-100.576-6.176-6.304-6.176 6.304-24.64 25.152-6.784 6.944 6.816 6.944L642.688 320l-67.04 68.48-6.816 6.944 6.816 6.944 24.64 25.152 6.144 6.304z m-220.864 0l6.176-6.304 24.64-25.152 6.784-6.944-6.816-6.944L349.28 320l67.072-68.48 6.816-6.944-6.816-6.944-24.64-25.152-6.144-6.304-6.176 6.304-98.496 100.576L274.08 320l6.816 6.944 98.496 100.576 6.176 6.304zM128 672a32 32 0 1 1 64 0 32 32 0 0 1-64 0zM224 672a32 32 0 1 1 64 0 32 32 0 0 1-64 0z"  horiz-adv-x="1024" />
      
      <glyph glyph-name="wenjianjiashouqi" unicode="&#59511;" d="M896 0H128a42.666667 42.666667 0 0 0-42.666667 42.666667V725.333333a42.666667 42.666667 0 0 0 42.666667 42.666667h316.330667l85.333333-85.333333H896a42.666667 42.666667 0 0 0 42.666667-42.666667v-597.333333a42.666667 42.666667 0 0 0-42.666667-42.666667zM938.666667 597.333333v-538.666666c0-32.426667-19.114667-58.666667-42.666667-58.666667H128c-23.552 0-42.666667 26.282667-42.666667 58.666667V597.333333a42.666667 42.666667 0 0 0 42.666667 42.666667h768a42.666667 42.666667 0 0 0 42.666667-42.666667z"  horiz-adv-x="1024" />
      
      <glyph glyph-name="wenjianjiazhankai" unicode="&#59512;" d="M896 0H128a42.666667 42.666667 0 0 0-42.666667 42.666667V725.333333a42.666667 42.666667 0 0 0 42.666667 42.666667h316.330667l85.333333-85.333333H896a42.666667 42.666667 0 0 0 42.666667-42.666667v-597.333333a42.666667 42.666667 0 0 0-42.666667-42.666667zM1015.552 504.874667L938.666667 50.858667c0-28.074667-19.114667-50.858667-42.666667-50.858667H128c-23.552 0-42.666667 22.784-42.666667 50.858667L164.650667 519.125333A42.666667 42.666667 0 0 0 206.72 554.666667h766.762667a42.666667 42.666667 0 0 0 42.069333-49.792z"  horiz-adv-x="1024" />
      
      <glyph glyph-name="AIshengcheng" unicode="&#59510;" d="M753.792 853.333333l56.277333-105.514666 105.472-56.277334-105.472-56.277333-56.32-105.472-56.234666 105.472-105.514667 56.32 105.514667 56.234667zM867.541333 208L796.458667 341.333333 725.333333 208l-133.333333-71.125333L725.333333 65.792l71.125334-133.333333 71.082666 133.333333 133.333334 71.082667zM369.792 720l113.749333-213.333333 213.333334-113.792-213.333334-113.749334-113.749333-213.333333-113.792 213.333333-213.333333 113.749334 213.333333 113.792z"  horiz-adv-x="1024" />
      
      <glyph glyph-name="morentouxiang-zhishiku" unicode="&#59507;" d="M0 896m64 0l896 0q64 0 64-64l0-896q0-64-64-64l-896 0q-64 0-64 64l0 896q0 64 64 64ZM704 144H380a84 84 0 0 0-84 84V552A72 72 0 0 0 368 624H704a24 24 0 0 0 24-24v-432a24 24 0 0 0-24-24z m-24 48v72h-300a36 36 0 0 1 0-72h300zM464 576v-192l84 48L632 384v192H464z"  horiz-adv-x="1024" />
      
      <glyph glyph-name="morentouxiang-tishici" unicode="&#59508;" d="M512 384m-512 0a512 512 0 1 1 1024 0 512 512 0 1 1-1024 0ZM256 611.5584m51.2 0l409.6 0q51.2 0 51.2-51.2l0-352.7168q0-51.2-51.2-51.2l-409.6 0q-51.2 0-51.2 51.2l0 352.7168q0 51.2 51.2 51.2ZM761.344 607.744L716.8 691.2l-44.544-83.456L588.8 563.2l83.456-44.544L716.8 435.2l44.544 83.456L844.8 563.2zM307.2 384m38.4 0l128 0q38.4 0 38.4-38.4l0 0q0-38.4-38.4-38.4l-128 0q-38.4 0-38.4 38.4l0 0q0 38.4 38.4 38.4ZM307.2 281.6m38.4 0l332.8 0q38.4 0 38.4-38.4l0 0q0-38.4-38.4-38.4l-332.8 0q-38.4 0-38.4 38.4l0 0q0 38.4 38.4 38.4Z"  horiz-adv-x="1024" />
      
      <glyph glyph-name="morentouxiang-yuyinshibie" unicode="&#59502;" d="M512 384m-512 0a512 512 0 1 1 1024 0 512 512 0 1 1-1024 0ZM512 665.6a128 128 0 0 0 128-128v-153.6a128 128 0 0 0-256 0v153.6a128 128 0 0 0 128 128zM281.6 358.4h51.9168c12.5184-86.8352 87.6544-153.6 178.4832-153.6 90.8288 0 165.9648 66.7648 178.4832 153.6H742.4c-11.8784-106.8032-97.2032-191.5904-204.6464-203.392V102.4h-51.5072v52.608C378.8032 166.8096 293.4784 251.5968 281.6 358.4z"  horiz-adv-x="1024" />
      
      <glyph glyph-name="morentouxiang-gongzuoliu" unicode="&#59503;" d="M512 384m-512 0a512 512 0 1 1 1024 0 512 512 0 1 1-1024 0ZM420.6848 523.2384A85.376 85.376 0 0 0 483.584 440.8832v-113.7664a142.2592 142.2592 0 0 1 117.9392-140.16A85.376 85.376 0 0 1 768 213.3248a85.3248 85.3248 0 0 1-164.6848 31.4368 85.376 85.376 0 0 0-62.8736 82.3552V440.8832a141.568 141.568 0 0 1-28.416 85.3504h90.1632c11.7248-33.152 11.7248 90.0096 0 56.8832H421.8112A85.376 85.376 0 0 1 256 554.6752a85.3248 85.3248 0 0 1 164.6848-31.4368zM398.2336 241.7664h256v-56.8832h-256zM341.3248 554.6752m-85.3248 0a85.3248 85.3248 0 1 1 170.6496 0 85.3248 85.3248 0 1 1-170.6496 0ZM341.3248 298.6752a85.3248 85.3248 0 1 0 0-170.6752 85.3248 85.3248 0 0 0 0 170.6752z m0-28.4416a56.8832 56.8832 0 1 1 0-113.792 56.8832 56.8832 0 0 1 0 113.792zM682.6752 213.3248m-85.3248 0a85.3248 85.3248 0 1 1 170.6496 0 85.3248 85.3248 0 1 1-170.6496 0ZM682.6752 640a85.3248 85.3248 0 1 0 0-170.6752 85.3248 85.3248 0 0 0 0 170.6752z m0-28.4416a56.8832 56.8832 0 1 1 0-113.792 56.8832 56.8832 0 0 1 0 113.792z"  horiz-adv-x="1024" />
      
      <glyph glyph-name="morentouxiang-changjing" unicode="&#59504;" d="M512 384m-512 0a512 512 0 1 1 1024 0 512 512 0 1 1-1024 0ZM375.296 122.0864c0-27.648 22.016-47.8208 49.1264-45.0304 1.6384 0.1792 3.2768 0.4096 4.9152 0.768l249.6512 51.2256c17.8944 3.6608 32.7168 16.6656 39.7824 33.152-6.1696-9.4464-18.0992-13.9264-31.8208-10.5472L427.52 210.432c-19.9936 4.9152-36.224 24.6272-36.224 44.0832V417.024c0 14.1568-5.8368 28.9792-15.9232 41.216L375.296 122.112z m248.4736 224.9472c0-9.984 11.136-21.248 24.832-25.088 13.7472-3.8656 24.8576 1.1008 24.8576 11.0848v108.6208c0 10.0096-11.1104 21.248-24.832 25.1136-13.7216 3.8656-24.832-1.1008-24.832-11.1104zM325.632 145.3568c0-13.568 11.136-23.7312 24.8576-22.7072l347.8528 26.0352c13.7216 1.024 24.8576 12.8512 24.8576 26.4448v2.816c0-19.4048-16.2048-31.2064-36.1984-26.2912L427.52 210.4576c-19.9936 4.8896-36.1984 24.6272-36.1984 44.0576V417.024c0 18.304-9.728 37.6832-25.7536 51.2l-39.936 33.792v-356.6592zM300.8 542.6432c0-12.1856 6.5024-25.1136 17.152-34.1504l47.616-40.2688c16-13.5424 25.7536-32.9216 25.7536-51.2v-162.5088c0-19.456 16.2048-39.168 36.1984-44.0832l259.4816-58.7776c19.968-4.9152 36.1984 6.8608 36.1984 26.2912v387.072c0 19.456-16.2048 39.168-36.1984 44.0832L336.9984 690.0992c-19.968 4.8896-36.1984-6.8864-36.1984-26.3168v-121.1392z m323.0208-195.584v108.5952c0 9.984 11.1104 14.976 24.832 11.1104 13.7216-3.8656 24.832-15.104 24.832-25.088v-108.6464c0-9.984-11.1104-14.9504-24.832-11.0848-13.7216 3.84-24.832 15.104-24.832 25.088z"  horiz-adv-x="1024" />
      
      <glyph glyph-name="morentouxiang-yuyinshuchu" unicode="&#59505;" d="M512 384m-512 0a512 512 0 1 1 1024 0 512 512 0 1 1-1024 0ZM457.7792 640c102.6048 0 187.3152-77.7216 200.1152-178.304l56.7808-90.5984c3.7376-5.9648 2.9696-14.848-5.6832-18.6368l-49.408-21.4784V256c0-28.288-22.6048-51.2-50.432-51.2h-50.432l-0.0512-76.8h-226.9952v94.5664c0 30.208-11.008 58.8032-31.3856 84.608A205.824 205.824 0 0 0 256 435.2c0 113.1008 90.3424 204.8 201.7792 204.8zM767.6672 227.7888l-42.5984 28.416A229.3504 229.3504 0 0 1 763.7248 384a229.3248 229.3248 0 0 1-38.656 127.8208l42.5984 28.416A280.2688 280.2688 0 0 0 814.9248 384c0-57.8048-17.408-111.5136-47.2576-156.2112z"  horiz-adv-x="1024" />
      
      <glyph glyph-name="morentouxiang-chajian" unicode="&#59506;" d="M0 896m64 0l896 0q64 0 64-64l0-896q0-64-64-64l-896 0q-64 0-64 64l0 896q0 64 64 64ZM293.92 559.68l176.448 102.208a74.944 74.944 0 0 0 75.168 0l185.152-107.264a75.456 75.456 0 0 0 37.568-65.28v-214.528c0-26.944-14.304-51.84-37.568-65.28l-176.448-102.24c11.616 6.72 18.784 19.2 18.784 32.64v236.288c0 26.944-14.336 51.84-37.568 65.312l-203.968 118.144a37.44 37.44 0 0 1-37.568 0zM255.744 281.28v232.32c0 10.72 4.48 20.8 12.096 27.744l3.2 2.56 1.6 0.864a34.88 34.88 0 0 0 32.096-1.984l194.784-116.128a74.592 74.592 0 0 0 35.872-64.192v-232.288c0-10.72-4.48-20.8-12.096-27.744l-3.328-2.656-1.504-0.768a34.88 34.88 0 0 0-32.096 1.952l-194.752 116.16a74.592 74.592 0 0 0-35.872 64.16z"  horiz-adv-x="1024" />
      
      <glyph glyph-name="wendangleixing-txt" unicode="&#59494;" d="M658.285714 749.714286v-146.285715a36.571429 36.571429 0 0 1 36.571429-36.571428l146.249143 0.036571 0.036571-512.365714a36.315429 36.315429 0 0 0-36.315428-36.242286H219.172571A36.571429 36.571429 0 0 0 182.857143 54.564571V713.435429C182.857143 733.476571 199.131429 749.714286 219.172571 749.714286H658.285714z m0-475.428572h-292.571428v-73.142857h292.571428v73.142857z m0 146.285715h-292.571428v-73.142858h292.571428v73.142858z m-182.857143 146.285714h-109.714285v-73.142857h109.714285V566.857143zM658.285714 749.714286l182.857143-182.857143h-146.285714a36.571429 36.571429 0 0 0-36.571429 36.571428V749.714286z"  horiz-adv-x="1024" />
      
      <glyph glyph-name="wendangleixing-pdf" unicode="&#59495;" d="M655.433143 749.714286l0.365714-0.402286L655.835429 603.428571a36.571429 36.571429 0 0 1 32.329142-36.315428l4.242286-0.256 142.189714 0.036571 0.109715-511.744c0-20.370286-15.981714-36.864-35.620572-36.864H224.914286a36.205714 36.205714 0 0 0-35.620572 36.278857V713.435429c0 20.041143 16.091429 36.278857 35.84 36.278857h430.299429zM529.92 548.571429h-71.68c0-57.673143-16.347429-125.696-43.958857-188.452572-27.648-63.012571-65.024-116.918857-103.936-148.699428l42.276571-58.989715c104.96 71.387429 221.184 120.32 333.568 103.936l16.420572 70.912c-95.817143 32.548571-172.690286 130.230857-172.690286 221.293715z m-24.941714-151.003429a351.378286 351.378286 0 0 1 61.184-71.899429c-35.218286-6.436571-69.705143-17.005714-103.094857-30.464a644.169143 644.169143 0 0 1 41.874285 102.4zM655.835429 749.714286l178.834285-182.857143h-142.262857a36.571429 36.571429 0 0 0-36.571428 36.571428V749.714286z"  horiz-adv-x="1024" />
      
      <glyph glyph-name="wendangleixing-ppt" unicode="&#59496;" d="M658.285714 749.714286v-146.285715a36.571429 36.571429 0 0 1 36.571429-36.571428l146.249143 0.036571 0.036571-512.365714a36.315429 36.315429 0 0 0-36.315428-36.242286H219.172571A36.571429 36.571429 0 0 0 182.857143 54.564571V713.435429C182.857143 733.476571 199.131429 749.714286 219.172571 749.714286H658.285714zM658.285714 749.714286l182.857143-182.857143h-146.285714a36.571429 36.571429 0 0 0-36.571429 36.571428V749.714286zM365.714286 530.285714v-292.571428h73.142857v73.142857h219.428571v219.428571h-292.571428z m73.142857-73.142857h146.285714v-73.142857h-146.285714v73.142857z"  horiz-adv-x="1024" />
      
      <glyph glyph-name="wendangleixing-markdown" unicode="&#59497;" d="M182.857143 713.142857h658.285714a36.571429 36.571429 0 0 0 36.571429-36.571428v-585.142858a36.571429 36.571429 0 0 0-36.571429-36.571428H182.857143a36.571429 36.571429 0 0 0-36.571429 36.571428V676.571429a36.571429 36.571429 0 0 0 36.571429 36.571428z m146.285714-457.142857v146.285714l73.142857-73.142857 73.142857 73.142857v-146.285714h73.142858v256h-73.142858l-73.142857-73.142857-73.142857 73.142857H256v-256h73.142857zM731.428571 365.714286v146.285714h-73.142857v-146.285714h-73.142857l109.714286-109.714286 109.714286 109.714286z"  horiz-adv-x="1024" />
      
      <glyph glyph-name="wendangleixing-shipin" unicode="&#59498;" d="M512 54.857143h365.714286v-73.142857H512zM512 786.285714c222.171429 0 402.285714-180.114286 402.285714-402.285714s-180.114286-402.285714-402.285714-402.285714S109.714286 161.828571 109.714286 384 289.828571 786.285714 512 786.285714z m0-482.742857a80.457143 80.457143 0 1 1 0-160.914286 80.457143 80.457143 0 0 1 0 160.914286z m-160.914286 160.914286a80.457143 80.457143 0 1 1 0-160.914286 80.457143 80.457143 0 0 1 0 160.914286z m321.828572 0a80.457143 80.457143 0 1 1 0-160.914286 80.457143 80.457143 0 0 1 0 160.914286zM512 625.371429a80.457143 80.457143 0 1 1 0-160.914286 80.457143 80.457143 0 0 1 0 160.914286z"  horiz-adv-x="1024" />
      
      <glyph glyph-name="wendangleixing-excel" unicode="&#59499;" d="M658.285714 749.714286v-146.285715a36.571429 36.571429 0 0 1 36.571429-36.571428l146.249143 0.036571 0.036571-512.365714a36.315429 36.315429 0 0 0-36.315428-36.242286H219.172571A36.571429 36.571429 0 0 0 182.857143 54.564571V713.435429C182.857143 733.476571 199.131429 749.714286 219.172571 749.714286H658.285714zM555.885714 384l102.4 146.285714h-87.771428L512 446.683429 453.485714 530.285714H365.714286l102.4-146.285714-102.4-146.285714h87.771428l58.514286 83.602285L570.514286 237.714286H658.285714zM658.285714 749.714286l182.857143-182.857143h-146.285714a36.571429 36.571429 0 0 0-36.571429 36.571428V749.714286z"  horiz-adv-x="1024" />
      
      <glyph glyph-name="wendangleixing-tupian" unicode="&#59500;" d="M234.678857 419.620571l79.213714 79.250286 217.929143-217.892571 138.642286 138.642285 118.857143-118.857142v360.594285H234.678857v-241.737143zM195.035429 740.571429h633.929142c21.869714 0 39.606857-17.737143 39.606858-39.606858v-633.929142c0-21.869714-17.737143-39.606857-39.606858-39.606858H195.035429a39.606857 39.606857 0 0 0-39.606858 39.606858V700.964571c0 21.869714 17.737143 39.606857 39.606858 39.606858zM650.678857 463.250286a59.428571 59.428571 0 1 0 0 118.857143 59.428571 59.428571 0 0 0 0-118.857143z"  horiz-adv-x="1024" />
      
      <glyph glyph-name="wendangleixing-jiegouhuashuju" unicode="&#59501;" d="M877.714286 530.285714H146.285714V676.571429a36.571429 36.571429 0 0 0 36.571429 36.571428h658.285714a36.571429 36.571429 0 0 0 36.571429-36.571428v-146.285715zM621.714286 54.857143h-219.428572V493.714286h219.428572v-438.857143z m36.571428 0V493.714286h219.428572v-402.285715a36.571429 36.571429 0 0 0-36.571429-36.571428h-182.857143z m-292.571428 0H182.857143a36.571429 36.571429 0 0 0-36.571429 36.571428V493.714286h219.428572v-438.857143z"  horiz-adv-x="1024" />
      
      <glyph glyph-name="wendangleixing-url" unicode="&#59465;" d="M841.435429 713.142857c20.041143 0 36.278857-16.420571 36.278857-36.827428v-511.488c0-20.333714-16.64-36.827429-36.278857-36.827429H585.142857v-36.571429h109.714286v-73.142857H329.142857v73.142857h109.714286v36.571429H182.564571A36.498286 36.498286 0 0 0 146.285714 164.864V676.278857C146.285714 696.649143 162.925714 713.142857 182.564571 713.142857h658.870858z m-180.662858-91.172571a115.053714 115.053714 0 0 1-162.706285 0l-130.194286-130.157715a161.097143 161.097143 0 0 1 227.84-227.803428l130.194286 130.194286-32.548572 32.548571-130.194285-130.194286a115.053714 115.053714 0 1 0-162.742858 162.742857l130.194286 130.157715a69.046857 69.046857 0 0 0 97.645714-97.645715l-130.194285-130.194285a23.04 23.04 0 1 0-32.548572 32.548571l130.194286 130.194286-32.548571 32.548571-130.194286-130.194285a69.046857 69.046857 0 0 1 97.645714-97.645715l130.194286 130.194286a115.053714 115.053714 0 0 1 0 162.742857z"  horiz-adv-x="1024" />
      
      <glyph glyph-name="wendangleixing-yinpin" unicode="&#59491;" d="M292.571429 566.857143a54.857143 54.857143 0 0 0 54.857142-54.857143v-256a54.857143 54.857143 0 0 0-109.714285 0v256A54.857143 54.857143 0 0 0 292.571429 566.857143z m146.285714 182.857143a54.857143 54.857143 0 0 0 54.857143-54.857143v-548.571429a54.857143 54.857143 0 0 0-109.714286 0v548.571429A54.857143 54.857143 0 0 0 438.857143 749.714286z m146.285714-73.142857a54.857143 54.857143 0 0 0 54.857143-54.857143v-548.571429a54.857143 54.857143 0 0 0-109.714286 0v548.571429A54.857143 54.857143 0 0 0 585.142857 676.571429z m292.571429-219.428572a54.857143 54.857143 0 0 0 54.857143-54.857143v-36.571428a54.857143 54.857143 0 0 0-109.714286 0v36.571428A54.857143 54.857143 0 0 0 877.714286 457.142857zM731.428571 566.857143a54.857143 54.857143 0 0 0 54.857143-54.857143v-256a54.857143 54.857143 0 0 0-109.714285 0v256A54.857143 54.857143 0 0 0 731.428571 566.857143zM146.285714 457.142857a54.857143 54.857143 0 0 0 54.857143-54.857143v-36.571428a54.857143 54.857143 0 0 0-109.714286 0v36.571428A54.857143 54.857143 0 0 0 146.285714 457.142857z"  horiz-adv-x="1024" />
      
      <glyph glyph-name="wendangleixing-word" unicode="&#59492;" d="M658.285714 749.714286v-146.285715a36.571429 36.571429 0 0 1 36.571429-36.571428l146.249143 0.036571 0.036571-512.365714a36.315429 36.315429 0 0 0-36.315428-36.242286H219.172571A36.571429 36.571429 0 0 0 182.857143 54.564571V713.435429C182.857143 733.476571 199.131429 749.714286 219.172571 749.714286H658.285714zM658.285714 749.714286l182.857143-182.857143h-146.285714a36.571429 36.571429 0 0 0-36.571429 36.571428V749.714286zM585.142857 525.787429v-176.859429l-73.142857 70.509714-72.777143-70.875428-0.365714 177.225143h-73.142857v-283.574858h73.142857l73.142857 70.875429 73.142857-70.875429h73.142857v283.574858z"  horiz-adv-x="1024" />
      
      <glyph glyph-name="wendangleixing-QAdui" unicode="&#59493;" d="M731.428571 713.142857a36.571429 36.571429 0 0 0 36.571429-36.571428v-438.857143a36.571429 36.571429 0 0 0-36.571429-36.571429H309.211429L146.285714 73.142857V676.571429a36.571429 36.571429 0 0 0 36.571429 36.571428h548.571428z m-247.076571-73.142857h-25.014857C421.156571 640 402.285714 621.129143 402.285714 582.948571v-198.363428c0-38.180571 18.870857-57.051429 57.051429-57.051429h10.532571l56.612572-34.669714 22.820571 35.547429-31.158857 12.726857c15.36 7.899429 23.259429 23.698286 23.259429 48.274285V582.948571c0 38.180571-18.870857 57.051429-57.051429 57.051429z m-7.460571-41.252571c11.849143 0 17.554286-5.705143 17.554285-17.993143v-193.974857c0-12.288-5.705143-17.993143-17.554285-17.993143h-9.654858c-12.288 0-17.993143 5.705143-17.993142 17.993143V580.754286c0 12.288 5.705143 17.993143 17.993142 17.993143h9.654858zM329.142857 201.142857h402.285714a36.571429 36.571429 0 0 1 36.571429 36.571429V566.857143h73.142857a36.571429 36.571429 0 0 0 36.571429-36.571429v-530.285714L751.396571 91.428571H365.714286a36.571429 36.571429 0 0 0-36.571429 36.571429v73.142857z"  horiz-adv-x="1024" />
      
      <glyph glyph-name="gongneng-shuchujieguopingfen" unicode="&#59464;" d="M0 896m128 0l768 0q128 0 128-128l0-768q0-128-128-128l-768 0q-128 0-128 128l0 768q0 128 128 128ZM742.4 640a25.6 25.6 0 0 0 25.6-25.6V256a25.6 25.6 0 0 0-25.6-25.6h-167.68L512 140.8l-62.72 89.6H281.6A25.6 25.6 0 0 0 256 256V614.4a25.6 25.6 0 0 0 25.6 25.6h460.8z m-322.048-175.168H381.12c-7.232 0-13.088-5.76-13.088-12.896v-129.024c0-7.136 5.856-12.928 13.12-12.928h39.232v154.88z m122.368 99.872a6.624 6.624 0 0 1-8.544-0.608l-83.808-82.56a12.8 12.8 0 0 1-3.84-9.152v-149.472c0-7.136 5.888-12.928 13.12-12.928h141.76a13.12 13.12 0 0 1 12.096 8l40.512 96.96a25.504 25.504 0 0 1 1.984 9.856v27.136a25.984 25.984 0 0 1-26.176 25.792h-83.776l15.072 58.464a19.2 19.2 0 0 1-7.232 20.256z"  horiz-adv-x="1024" />
      
      <glyph glyph-name="gongneng-yuyinshezhi" unicode="&#59466;" d="M0 896m128 0l768 0q128 0 128-128l0-768q0-128-128-128l-768 0q-128 0-128 128l0 768q0 128 128 128ZM464 624c97.6 0 178.24-72.864 190.4-167.168l54.016-84.928c3.552-5.6 2.848-13.952-5.408-17.472l-47.008-20.16v-70.272a48 48 0 0 0-48-48h-48v-72h-216v88.64c0 28.352-10.464 55.136-29.856 79.36A192 192 0 0 0 464 624z m291.68-386.464l-39.936 26.624A215.008 215.008 0 0 1 752 384a215.008 215.008 0 0 1-36.256 119.84l39.936 26.624A262.752 262.752 0 0 0 800 384c0-54.176-16.32-104.544-44.32-146.464z"  horiz-adv-x="1024" />
      
      <glyph glyph-name="gongneng-duihuatiyan" unicode="&#59484;" d="M0 896m128 0l768 0q128 0 128-128l0-768q0-128-128-128l-768 0q-128 0-128 128l0 768q0 128 128 128ZM512 624a240 240 0 0 0 0-480H272l70.304 70.304A240 240 0 0 0 512 624z m96-264h-192a96 96 0 0 1 192 0z"  horiz-adv-x="1024" />
      
      <glyph glyph-name="gongneng-daansuyuan" unicode="&#59486;" d="M0 896m128 0l768 0q128 0 128-128l0-768q0-128-128-128l-768 0q-128 0-128 128l0 768q0 128 128 128ZM704 640h-126.08a32 32 0 0 1-32-32v-208.384a32 32 0 0 1 32-32h37.12c-3.84-43.008-19.2-86.016-48-155.648l-23.04-61.44 76.8-22.528 44.16 73.728c63.36 100.352 71.04 133.12 71.04 251.904V608a32 32 0 0 1-32 32z m-256 0h-126.08a32 32 0 0 1-32-32v-208.384a32 32 0 0 1 32-32h39.04c-5.76-43.008-19.2-86.016-48-155.648L288 150.528l76.8-22.528 44.16 73.728c63.36 100.352 71.04 133.12 71.04 251.904V608a32 32 0 0 1-32 32z"  horiz-adv-x="1024" />
      
      <glyph glyph-name="daanrunse" unicode="&#59487;" d="M0 896m128 0l768 0q128 0 128-128l0-768q0-128-128-128l-768 0q-128 0-128 128l0 768q0 128 128 128ZM272 144l126.976 28.224a240 240 0 1 1-98.784 98.784L272 144z m322.784 360l-4.224-48h41.44v-48h-45.632l-4.192-48h49.824v-48h-54.016l-4.224-48h-48.16l4.16 48H481.6l-4.192-48h-48.192l4.192 48H392v48h45.632l4.16 48H392v48h54.016l4.192 48h48.192l-4.192-48h48.192l4.16 48h48.224z m-104.768-96l-4.224-48h48.192l4.192 48h-48.16z"  horiz-adv-x="1024" />
      
      <glyph glyph-name="gongneng-tuijianwenti" unicode="&#59488;" d="M0 896m128 0l768 0q128 0 128-128l0-768q0-128-128-128l-768 0q-128 0-128 128l0 768q0 128 128 128ZM378.88 233.984L272 149.984V593.984a24 24 0 0 0 24 24h432a24 24 0 0 0 24-24v-336a24 24 0 0 0-24-24H378.88z m133.536 103.232l80.64 80.608a53.984 53.984 0 1 1-76.384 76.352l-4.256-4.224-4.224 4.224a54.016 54.016 0 0 1-76.384-76.352l80.64-80.64z"  horiz-adv-x="1024" />
      
      <glyph glyph-name="gongneng-xuniren" unicode="&#59489;" d="M0 896m128 0l768 0q128 0 128-128l0-768q0-128-128-128l-768 0q-128 0-128 128l0 768q0 128 128 128ZM632 600h-96V624h-48v-24h-96A72 72 0 0 1 320 528v-72a120 120 0 0 1 120-120h144A120 120 0 0 1 704 456V528a72 72 0 0 1-72 72z m-144-132a36 36 0 1 0-72 0 36 36 0 0 0 72 0z m120 0a36 36 0 1 0-72 0 36 36 0 0 0 72 0zM320 120a192 192 0 1 0 384 0H320z"  horiz-adv-x="1024" />
      
      <glyph glyph-name="gongneng-jinyongIP" unicode="&#59490;" d="M0 896m128 0l768 0q128 0 128-128l0-768q0-128-128-128l-768 0q-128 0-128 128l0 768q0 128 128 128ZM704 432H320v-216h384V432zM296 600h432a24 24 0 0 0 24-24v-384a24 24 0 0 0-24-24H296A24 24 0 0 0 272 192V576a24 24 0 0 0 24 24z m48-72V480h48v48h-48z m96 0V480h48v48h-48z m-96-120H416V288h-72v120z"  horiz-adv-x="1024" />
      
      <glyph glyph-name="changjing" unicode="&#59475;" d="M0 896m170.666667 0l682.666666 0q170.666667 0 170.666667-170.666667l0-682.666666q0-170.666667-170.666667-170.666667l-682.666666 0q-170.666667 0-170.666667 170.666667l0 682.666666q0 170.666667 170.666667 170.666667ZM360.149333 114.346667c0-30.72 24.448-53.162667 54.613334-50.048 1.792 0.170667 3.626667 0.426667 5.418666 0.853333l277.376 56.917333a62.677333 62.677333 0 0 1 44.16 36.693334c-6.826667-10.368-20.053333-15.36-35.285333-11.605334L418.133333 212.48c-22.186667 5.461333-40.234667 27.392-40.234666 48.981333V442.026667c0 15.786667-6.528 32.298667-17.792 45.952l0.042666-373.674667z m276.053334 249.898666c0-11.093333 12.373333-23.594667 27.648-27.861333 15.232-4.309333 27.605333 1.194667 27.605333 12.330667V469.418667c0 11.093333-12.373333 23.594667-27.605333 27.861333-15.274667 4.309333-27.605333-1.194667-27.605334-12.330667zM304.938667 140.16c0-15.061333 12.373333-26.368 27.605333-25.216l386.517333 28.928a30.08 30.08 0 0 1 27.605334 29.354667v3.157333c0-21.589333-18.005333-34.688-40.234667-29.226667L418.133333 212.48c-22.186667 5.461333-40.234667 27.392-40.234666 48.981333V442.026667c0 20.309333-10.837333 41.813333-28.586667 56.917333l-44.373333 37.546667v-396.330667zM277.333333 581.589333c0-13.525333 7.253333-27.904 19.072-37.930666l52.906667-44.714667c17.749333-15.061333 28.586667-36.608 28.586667-56.917333v-180.565334c0-21.589333 18.005333-43.52 40.234666-48.981333l288.298667-65.322667c22.186667-5.461333 40.234667 7.637333 40.234667 29.226667V606.464c0 21.589333-18.005333 43.52-40.234667 48.981333L317.568 745.386667c-22.186667 5.461333-40.234667-7.637333-40.234667-29.226667V581.546667z m358.912-217.344v120.746667c0 11.093333 12.373333 16.597333 27.605334 12.288 15.232-4.266667 27.605333-16.768 27.605333-27.861333v-120.746667c0-11.093333-12.373333-16.597333-27.605333-12.288-15.274667 4.266667-27.605333 16.768-27.605334 27.861333z"  horiz-adv-x="1024" />
      
      <glyph glyph-name="kaishi" unicode="&#59474;" d="M170.666667 896h682.666666c93.866667 0 170.666667-76.8 170.666667-170.666667v-682.666666c0-93.866667-76.8-170.666667-170.666667-170.666667H170.666667c-93.866667 0-170.666667 76.8-170.666667 170.666667V725.333333c0 93.866667 76.8 170.666667 170.666667 170.666667zM512 98.133333a285.866667 285.866667 0 1 0 0 571.733334 285.866667 285.866667 0 0 0 0-571.733334z m-38.4 388.266667H469.333333c-4.266667 0-12.8-4.266667-12.8-12.8V285.866667c4.266667-4.266667 8.533333-8.533333 17.066667-4.266667l140.8 93.866667s4.266667 0 4.266667 4.266666c4.266667 4.266667 0 12.8-4.266667 17.066667l-140.8 89.6z"  horiz-adv-x="1024" />
      
      <glyph glyph-name="jieshu" unicode="&#59453;" d="M0 896m170.666667 0l682.666666 0q170.666667 0 170.666667-170.666667l0-682.666666q0-170.666667-170.666667-170.666667l-682.666666 0q-170.666667 0-170.666667 170.666667l0 682.666666q0 170.666667 170.666667 170.666667ZM512 99.541333A284.458667 284.458667 0 1 0 512 668.458667a284.458667 284.458667 0 0 0 0-568.917334zM426.666667 469.333333v-170.666666h170.666666V469.333333H426.666667z"  horiz-adv-x="1024" />
      
      <glyph glyph-name="diedai" unicode="&#59454;" d="M0 896m170.666667 0l682.666666 0q170.666667 0 170.666667-170.666667l0-682.666666q0-170.666667-170.666667-170.666667l-682.666666 0q-170.666667 0-170.666667 170.666667l0 682.666666q0 170.666667 170.666667 170.666667ZM744.32 151.68A328.533333 328.533333 0 0 0 184.234667 406.613333l0.256 2.858667H114.005333a17.066667 17.066667 0 0 0-12.074666 29.141333l115.157333 115.114667a17.066667 17.066667 0 0 0 24.149333 0l115.157334-115.114667a17.066667 17.066667 0 0 0-12.074667-29.141333H265.813333l-0.298666-3.456a246.826667 246.826667 0 0 1 63.829333-188.928l7.68-8.021333a247.466667 247.466667 0 0 1 349.952 0l57.344-57.344z m0 464.64a327.808 327.808 0 0 0 95.445333-254.890667l-0.256-2.816h70.528a17.066667 17.066667 0 0 0 12.032-29.141333l-115.157333-115.2a17.066667 17.066667 0 0 0-24.149333 0l-115.2 115.2a17.066667 17.066667 0 0 0 12.117333 29.141333h78.506667l0.298666 3.413334a246.826667 246.826667 0 0 1-63.829333 188.928l-7.68 8.021333a247.466667 247.466667 0 0 1-349.952 0L279.68 616.32a328.533333 328.533333 0 0 0 464.64 0z"  horiz-adv-x="1024" />
      
      <glyph glyph-name="disanfangjiekou" unicode="&#59455;" d="M0 896m170.666667 0l682.666666 0q170.666667 0 170.666667-170.666667l0-682.666666q0-170.666667-170.666667-170.666667l-682.666666 0q-170.666667 0-170.666667 170.666667l0 682.666666q0 170.666667 170.666667 170.666667ZM752.469333 640a42.666667 42.666667 0 0 0 42.666667-42.666667v-403.370666a42.666667 42.666667 0 0 0-42.666667-42.666667H256a42.666667 42.666667 0 0 0-42.666667 42.666667V597.333333a42.666667 42.666667 0 0 0 42.666667 42.666667z m-10.197333-165.674667H266.24v-255.189333c0-7.509333 5.930667-13.568 13.226667-13.568h449.578666c7.253333 0 13.226667 6.058667 13.226667 13.568V474.325333zM319.146667 575.573333a26.837333 26.837333 0 0 1-26.453334-27.178666c0-15.018667 11.818667-27.178667 26.453334-27.178667 14.592 0 26.453333 12.16 26.453333 27.178667a26.837333 26.837333 0 0 1-26.453333 27.178666z m79.36 0a26.837333 26.837333 0 0 1-26.496-27.178666c0-15.018667 11.861333-27.178667 26.453333-27.178667 14.634667 0 26.453333 12.16 26.453333 27.178667a26.837333 26.837333 0 0 1-26.453333 27.178666z"  horiz-adv-x="1024" />
      
      <glyph glyph-name="canshutiqu" unicode="&#59458;" d="M170.666667 896h682.666666c93.866667 0 170.666667-76.8 170.666667-170.666667v-682.666666c0-93.866667-76.8-170.666667-170.666667-170.666667H170.666667c-93.866667 0-170.666667 76.8-170.666667 170.666667V725.333333c0 93.866667 76.8 170.666667 170.666667 170.666667zM669.866667 264.533333l-29.866667 38.4v59.733334c-21.333333 8.533333-42.666667 29.866667-51.2 59.733333V426.666667c-4.266667 21.333333-21.333333 38.4-46.933333 42.666666-59.733333 8.533333-81.066667 72.533333-59.733334 115.2-4.266667 8.533333-12.8 12.8-25.6 12.8h-34.133333c-12.8 0-29.866667-8.533333-34.133333-25.6l-17.066667-42.666666-59.733333-34.133334-46.933334 4.266667c-17.066667 4.266667-34.133333-4.266667-42.666666-17.066667l-17.066667-29.866666c-8.533333-12.8-8.533333-34.133333 4.266667-46.933334l29.866666-38.4V298.666667l-25.6-34.133334c-8.533333-12.8-12.8-29.866667-4.266666-46.933333l17.066666-29.866667c8.533333-8.533333 21.333333-17.066667 38.4-17.066666l46.933334 8.533333 59.733333-34.133333 17.066667-42.666667c4.266667-17.066667 21.333333-25.6 38.4-25.6h34.133333c17.066667 0 29.866667 8.533333 38.4 25.6l17.066667 42.666667 59.733333 34.133333 46.933333-8.533333c17.066667-4.266667 29.866667 4.266667 38.4 21.333333l17.066667 29.866667c4.266667 12.8 0 29.866667-8.533333 42.666666z m-230.4-12.8c-46.933333 0-81.066667 38.4-81.066667 85.333334s34.133333 81.066667 81.066667 85.333333c46.933333 0 85.333333-38.4 85.333333-85.333333s-38.4-85.333333-85.333333-85.333334zM640 665.6c8.533333 38.4 59.733333 38.4 68.266667 0v-4.266667c8.533333-38.4 42.666667-72.533333 85.333333-76.8 38.4-8.533333 38.4-64 0-68.266666-42.666667-8.533333-72.533333-38.4-85.333333-81.066667v-4.266667c-8.533333-38.4-59.733333-38.4-68.266667 0v4.266667c-8.533333 42.666667-42.666667 72.533333-81.066667 81.066667-38.4 8.533333-38.4 64 0 68.266666 42.666667 8.533333 72.533333 38.4 81.066667 81.066667z"  horiz-adv-x="1024" />
      
      <glyph glyph-name="wenbenchuli" unicode="&#59459;" d="M0 896m170.666667 0l682.666666 0q170.666667 0 170.666667-170.666667l0-682.666666q0-170.666667-170.666667-170.666667l-682.666666 0q-170.666667 0-170.666667 170.666667l0 682.666666q0 170.666667 170.666667 170.666667ZM684.544 640c9.514667 0 18.346667-4.736 23.68-12.672l151.68-227.541333c6.4-9.557333 6.4-22.016 0-31.573334L708.266667 140.672a28.458667 28.458667 0 0 0-23.68-12.672H273.066667a28.458667 28.458667 0 0 0-28.458667 28.458667V611.541333c0 15.744 12.714667 28.458667 28.458667 28.458667zM379.136 562.816h-9.813333c-44.970667 0-67.882667-22.912-67.882667-67.882667v-41.216c0-30.677333 9.002667-48.981333 34.56-67.157333l48.085333-34.816c11.733333-8.661333 15.488-15.232 15.488-29.610667v-51.498666c0-15.445333-6.485333-21.930667-21.930666-21.930667h-7.850667c-15.36 0-21.888 6.485333-21.888 21.930667v77.696h-46.506667v-76.245334c0-44.16 22.613333-66.901333 66.944-66.901333h10.794667c44.970667 0 67.882667 22.912 67.882667 67.882667v50.048c0 31.146667-8.789333 48.426667-34.56 67.157333l-47.616 34.346667c-12.074667 8.917333-15.957333 15.488-15.957334 29.568V497.365333c0 15.445333 6.485333 21.930667 21.888 21.930667h6.869334c15.445333 0 21.930667-6.485333 21.930666-21.930667v-67.413333h46.506667V495.957333c0 44.16-22.613333 66.901333-66.944 66.901334z m339.328-289.578667H672v-65.109333h46.506667v65.109333z m-190.933333 252.288h-45.482667v-44.16h-17.664v-42.538666h17.664v-230.698667h45.482667v230.698667h27.008v42.538666h-27.008V525.525333z m131.072-41.728h-4.096l-3.626667-0.085333c-14.08-0.853333-24.362667-6.485333-33.664-18.432l-1.365333-1.792v17.877333H570.453333v-273.237333h45.482667l-0.042667 210.773333 3.285334 2.645334c7.808 5.845333 16.810667 9.386667 28.373333 11.093333l7.296 0.768 3.797333 0.298667V483.84z"  horiz-adv-x="1024" />
      
      </font>
</defs>
</svg>
